<?xml version="1.0" encoding="utf-8"?>
<!-- Generator: Adobe Illustrator 24.0.0, SVG Export Plug-In . SVG Version: 6.00 Build 0)  -->
<svg version="1.1"  xmlns="http://www.w3.org/2000/svg" xmlns:xlink="http://www.w3.org/1999/xlink" x="0px" y="0px"
	 viewBox="0 0 104.6 110.2" style="enable-background:new 0 0 104.6 110.2;" xml:space="preserve">
<style type="text/css">
	.st0{fill:#FFFFFF;}
</style>
<g>
	<path class="st0" d="M36.7,24.9c6.2,0,11.2-5,11.2-11.2c0-6.2-5-11.2-11.2-11.2s-11.2,5-11.2,11.2C25.4,19.8,30.5,24.9,36.7,24.9z"
		/>
	<path class="st0" d="M97.3,54.9l6.9-4.8c0.4-0.3,0.5-0.7,0.3-1.1c-0.2-0.4-0.7-0.6-1.1-0.5c-0.2,0-19,5.2-25.4,6.5
		c-4,0.6-8,0.9-12.1,0.9c-7.1,0-13.6-0.9-19.2-2.2c-1.4-3.9-2-7.9-1.8-11.8c2.6,1,5.3,2,8.2,3c2.7,1,6,2.2,9.2,3.4
		c0.7,0.3,1.4,0.4,2.1,0.4c2.8,0,4.5-2.3,4.9-4.6c0.5-2.5-0.5-5.6-3.7-6.9c-3-1.2-6.1-2.3-9.1-3.4l-0.3-0.1
		c-4.9-1.8-9.9-3.6-14.8-5.6c-0.4-0.2-0.9-0.3-1.3-0.4c-0.6-0.3-1.2-0.5-1.9-0.7c-2.2-0.6-5-0.3-7.3,0.8
		c-8.8,0.5-15.2-4.7-18.2-15.1c-0.7-2.5-2.8-4-5.4-4c-2,0-3.9,0.9-4.9,2.4c-1,1.3-1.3,3-0.7,4.8C5.5,29,13.9,37.2,25.3,38.9
		c-0.2,2.9-0.3,5.8,0,8.6l0,0.5l0.1,0.1l1.4,7.8l-0.1-0.1l0.3,1.1l0.1,0.7c0,0.2,0.1,0.3,0.2,0.4l2.3,8.5c-3.4,2.9-7.9,7.4-8.9,14.1
		c-1.1,7.7,2.4,14.9,5.8,21c1.2,2.2,3.2,3.4,5.6,3.4c2.6,0,5.2-1.5,6.5-3.7c1.2-2.1,1.2-4.5,0-6.7l-0.3-0.5c-1.9-3.4-3.9-6.9-4-10.7
		c0-1.6,0.8-3.2,2.6-4.9c5.2,11.2,12.9,20.4,24.8,30c1.3,1.1,2.9,1.6,4.5,1.6c3.1,0,6.2-2.2,7.2-5c0.9-2.4,0.1-4.8-2.1-6.6
		C62.2,91.1,52.9,82.3,47.9,69c-0.1-0.3-0.2-0.5-0.4-0.8c0.5-0.8,0.8-1.8,1-2.7c4.6,1,8.9,1.5,13.2,1.5c7,0,14.2-1.1,23.2-2.5
		c5.2-0.8,11.1-1.7,17.9-2.6c1.3,0.1,1.6-0.5,1.7-0.9C104.7,60.4,105,59.4,97.3,54.9z M61.8,65.1c-4.9,0-9.7-0.6-14.8-1.9
		c-0.2-0.1-0.5-0.1-0.7-0.2c-5.2-1.3-10.9-3.4-17.5-6.3l-1.3-7.6c2.3,1.1,6.8,3,12.8,4.7c1.7,0.5,3.5,1,5.5,1.5l1.7,0.4l0-0.1
		c5.5,1.1,11.7,2,18.5,2c4.2,0,8.4-0.3,12.5-0.9c4.4-0.9,14.7-3.6,20.5-5.1l-3.7,2.6c-0.3,0.2-0.4,0.5-0.4,0.8
		c0,0.3,0.2,0.6,0.5,0.8c2.8,1.6,5.5,3.4,6.9,4.5c-6.6,0.8-12.2,1.7-17.3,2.5C75.8,64.1,68.7,65.1,61.8,65.1z"/>
</g>
</svg>
