<?xml version="1.0" encoding="utf-8"?>
<!-- Generator: Adobe Illustrator 24.0.0, SVG Export Plug-In . SVG Version: 6.00 Build 0)  -->
<svg version="1.1" id="Warstwa_1" xmlns="http://www.w3.org/2000/svg" xmlns:xlink="http://www.w3.org/1999/xlink" x="0px" y="0px"
	 viewBox="0 0 863 1397" style="enable-background:new 0 0 863 1397;" xml:space="preserve">
<style type="text/css">
	.st0{opacity:0.15;fill:#ABB9BC;enable-background:new    ;}
	.st1{fill:#F0F0F0;}
	.st2{fill:#FFF9FF;}
	.st3{fill:#D3BAE7;}
	.st4{fill:#752939;}
	.st5{fill:#BCBACE;}
	.st6{fill:#1A685A;}
	.st7{fill:#409682;}
	.st8{fill:#4EAF9D;}
	.st9{fill:#EFB18F;}
	.st10{fill:#EF6F6C;}
	.st11{fill:#224F70;}
	.st12{fill:#222A52;}
	.st13{fill:#FBC8A9;}
	.st14{fill:#492B2B;}
	.st15{fill:#FABC9A;}
	.st16{fill:#363B46;}
	.st17{fill:#2C2F38;}
	.st18{fill:#1B1E26;}
	.st19{fill:#8C8D8F;}
	.st20{fill:#A8A9AB;}
	.st21{fill:#D7D8D3;}
	.st22{opacity:0.5;fill:#A8A9AB;enable-background:new    ;}
	.st23{fill:#73ACDE;}
	.st24{fill:#5797CF;}
	.st25{fill:#91C6F5;}
	.st26{fill:#D97B38;}
	.st27{fill:#CA6F2E;}
	.st28{fill:#757577;}
	.st29{fill:#666666;}
	.st30{fill:#CFD718;}
	.st31{opacity:0.5;fill:#C1C117;enable-background:new    ;}
	.st32{fill:#545454;}
	.st33{fill:#FFFFFF;}
	.st34{fill:#D0D713;}
	.st35{fill:#CFD613;}
</style>
<path class="st0" d="M806,1373.9H57c-19.1,0-34.5-15.4-34.5-34.5V52.5C22.5,33.4,37.9,18,57,18h749c19.1,0,34.5,15.4,34.5,34.5
	v1286.9C840.5,1358.5,825.1,1373.9,806,1373.9z"/>
<path class="st1" d="M457.9,764.4c0,39.7-78.5,71.9-175.3,71.9s-175.3-32.2-175.3-71.9s78.5-71.9,175.3-71.9
	S457.9,724.7,457.9,764.4z"/>
<g>
	<g>
		<g>
			<path class="st2" d="M376.5,529.6l-143,48v179.9c0,36.4,48.5,65.9,108.2,65.9c59.8,0,108.2-29.5,108.2-65.9V577.6L376.5,529.6z"
				/>
			<ellipse class="st3" cx="341.8" cy="577.6" rx="108.2" ry="65.9"/>
			<path class="st4" d="M249.6,612.2c19.1,18.8,53.2,31.3,92.1,31.3s73.1-12.5,92.2-31.3c1.3-3.8,2-7.8,2-11.8
				c0-31.7-42.2-57.4-94.2-57.4s-94.2,25.7-94.2,57.4C247.6,604.4,248.3,608.4,249.6,612.2z"/>
		</g>
		<path class="st5" d="M341.8,519.3c54.6,0,100.7,26.7,100.7,58.4c0,31.6-46.1,58.4-100.7,58.4s-100.7-26.7-100.7-58.4
			C241.1,546,287.2,519.3,341.8,519.3 M341.8,511.7c-59.8,0-108.2,29.5-108.2,65.9s48.5,65.9,108.2,65.9
			c59.8,0,108.2-29.5,108.2-65.9S401.5,511.7,341.8,511.7L341.8,511.7z"/>
	</g>
	<path class="st6" d="M433.8,273.8c-9.1,19.3-9.2,41.3-9.1,62.6c0.1,23.9,0.1,47.8,0.2,71.7c0.1,27.2,0.1,54.9-7.3,81.1
		c-7.4,26.2-23.4,51.2-47.7,63.3c-12.1,6-27.3,8.3-38.7,1.2c-5.1-3.2-8.9-7.9-12.2-13c-27.5-43.1-2.1-101,17.7-142.3
		C359.4,350.5,392.7,307.5,433.8,273.8z"/>
	<path class="st7" d="M228.3,470.4c-6.8-89.3-2.2-180.3-24.1-267.1c59.7,72.6,88.8,169.5,78.9,263c19.8-61.7,39.8-124.7,39.4-189.5
		c-0.2-31,18.9-104.1,18.9-104.1s11.2,70,21.5,104c7,23.2,8.5,47.7,9.8,71.9c2,35.3,4,70.7,6.1,106
		c29.4-88.8,108.1-211.2,108.1-211.2s-29,233.4-44.3,286.8c-17.4,60.6-74.1,101.8-139.1,87.4C244.4,604.4,232,519.5,228.3,470.4z"/>
	<path class="st8" d="M274.4,558.5c-12.4-34-0.9-71.3,6.8-106.6c9.2-42.1,12.8-86.1,3.5-128.1c31.1,65.6,58.4,133,81.9,201.7
		c6.1,17.8,11.9,37.1,6.1,55c-5.4,16.8-35.9,46.6-56.1,41.6C300.7,618.1,279.8,573.3,274.4,558.5z"/>
</g>
<g>
	<path class="st9" d="M328.6,719.1c-3-3-13.1-19.2-15.5-23.4c-1-1.8-3.5-7.3-6.3-14.2c-2.7,5.7-6.5,10.9-9.7,16.4
		c0.1,0.1,0.3,0.4,0.3,0.5c5.2,8.1,6.9,22.4,6.6,26.3s-0.6,11.7,1.2,14.2c1.9,2.4,3.1,9.4,5.8,10c3.4,0.7,1.2-5.9-1.5-15.3
		c-1-3.5,1.4-5.9,4.1-4.7s6.3,9.8,6.9,12.5s1.5,12.7,4,14.4c1.9,1.3,10.9-10.3,10.1-20.2C333.6,725.4,331.6,722,328.6,719.1z"/>
	<path class="st9" d="M275.8,589.6c6.3,10.4,7.9,20.4,10,23.4s6.9,13.9,10,28.6c3,14.7,14.9,49.7,17.4,53.9
		c2.4,4.2,12.7,22.7,15.7,25.7s4.8,4.1,5.7,14.1c0.9,10-10.3,17.2-12.4,15c-2.1-2.1-1-6.5-1.7-9.3c-0.6-2.7-4.2-11.3-6.9-12.5
		c-2.7-1.2-5.1,1.1-4.1,4.7c2.6,9.5,4.9,16,1.5,15.3c-2.6-0.5-3.9-7.5-5.8-10c-1.9-2.4-1.5-10.3-1.2-14.2s-4.1-15.5-9.2-23.6
		c-5.2-8.1-20.9-30.3-24.5-39.6c-3.6-9.4-9.3-32.3-9.3-32.3l-9.5-31.3L275.8,589.6z"/>
</g>
<path class="st1" d="M152.9,1087.4c47.6,27.4,124.6,27.4,172.2,0s47.6-72,0-99.4s-124.6-27.4-172.2,0
	C105.4,1015.4,105.4,1059.9,152.9,1087.4z"/>
<path class="st10" d="M235.8,968.7c-4.3,10.6-7,18.9-7,23.5s4.9,10.4,7,12.5s20.1,1.6,24.4,1.9c4.3,0.3,9.2,1.6,14.9,7.3
	c5.8,5.8,23.1,13.1,32.3,11.6c9.2-1.6,13.2-10.1,12.9-11.2c-0.3-1.2-2-9.8-16.1-15.1c-6.5-2.4-21.8-9.1-36.9-32.5L235.8,968.7z"/>
<path class="st10" d="M272.5,741l-59.8,9.3v43.5c2.2,1,4.7,6.7,12.9,34.8c10,34.3,14.3,43,13.8,49.6c-0.2,2.1-4.3,23-6.1,61.4
	c-0.9,18.1-2.4,32.5-3.8,38.2c-0.3,1.1,0.5,2.1,1.6,2.2c6.4,0.8,27,2.5,41.6-4c0.7-0.3,1.2-1.1,1.1-1.9c-0.3-4.7-0.1-19.8-0.1-31.3
	c0-10.8,1.3-25.1,2.1-36c0.8-10.9,3.4-20.3,5.1-29.5c3.1-17.1,0.9-49-1.2-71.7C276.8,777.8,272.6,742.9,272.5,741z"/>
<path class="st10" d="M260.3,1006.6c-4.3-0.3-22.3,0.3-24.4-1.9c-2.1-2.1-7-7.9-7-12.5c0-0.9,0.1-2,0.3-3c3.9,4.5,7.8,9.8,9.5,10.6
	c2.5,1.3,25.8,2.1,29.5,2.8c3.7,0.8,11.9,9,16.8,11.5c4.9,2.4,22.5,11.2,31.1,7.2c-1.9,1.8-4.5,3.4-8.4,4.1
	c-9.2,1.6-26.6-5.8-32.3-11.6C269.4,1008.1,264.6,1006.9,260.3,1006.6z"/>
<path class="st11" d="M190.8,999.9c-0.2,11.2,0.4,17.4,2,23.4c1.6,6.2,4.8,10.4,11.7,19.9c6.8,9.5,8.8,14.7,9,22.2
	s-10.1,11.4-16.4,12c-6.4,0.6-21.8-1.3-28.2-9.5c-6.3-8.2-8.5-12.1-10-23c-1.4-10.9-1.8-15.5-2.1-20.1s3.4-9.6,2.9-21.6L190.8,999.9
	z"/>
<path class="st10" d="M219.8,749.6l-70.8,7.1c-3.4,22.1-0.1,29.8,5.1,59.4c7.5,42.8,11.8,68.8,11.8,68.8s-7.6,31.3-6.9,61
	s-3.5,68.5-3.5,68.5s26.3,11.9,47.5,1.6c0,0,0.3-29.2,1.2-47.3c1.1-21.5,3.9-42.2,4.8-55.8c0.8-12.5,9-32.2,9.5-48.9
	c0.4-16.8,0.4-88.2,1.7-88.2C220,775.7,219.8,749.6,219.8,749.6z"/>
<path class="st11" d="M165.2,1049.4c3.4,18.4,20,29,46.8,20.6c-2.9,4.6-10.2,7.1-15.1,7.5c-6.4,0.6-21.8-1.3-28.2-9.5
	c-6.3-8.2-8.5-12.1-10-23c-1.4-10.9-1.8-15.5-2.1-20.1c-0.2-2.1,0.5-4.2,1.3-7l0,0C161,1025.5,161.7,1030.7,165.2,1049.4z"/>
<path class="st12" d="M226,527.2c11.1,0.3,23.3,5.9,38,32.3c14.6,26.6,21,43.9,21.8,46.7c0.8,2.7-12.7,16.8-25.7,19.4
	C247.3,628.2,226,527.2,226,527.2z"/>
<path class="st13" d="M162.8,508.2c1.7,6.9-1.2,18.2-4.7,23.3c-3.4,5.2-1.8,5.5,2.5,9.5s21.9,19,43.8,13.9
	c21.9-5.2-6.1-53.6-6.1-53.6L162.8,508.2z"/>
<path class="st14" d="M157,503c-6.9-4.1-10.6-13-14.4-24.5c-3.7-11.5-4-30.3,4.9-32.8c0,0,3.4-17.6,20.4-20.7s25.1,0.6,30.3,3.1
	c5.2,2.6,19.5,11.6,21.7,31.9l-46.8,40.9l-8.4-1.2L157,503z"/>
<path class="st15" d="M212.9,542.2L212.9,542.2c0-6.4-2.3-14.3-5.1-21.4c-8.9-8-19.7-15.2-19.7-15.2l-6.2-1.1l-19.1,3.7
	c0.3,1.2,0.4,2.4,0.5,3.8C165.6,520.6,190.5,547.6,212.9,542.2z"/>
<path class="st1" d="M830.7,927.1l-445.2,261.1c-4.8,2.8-10.8,2.8-15.6,0.1l-140.6-81.9c-10.2-6-10.3-20.6-0.1-26.7l444.6-261.1
	c4.8-2.8,10.8-2.9,15.6-0.1l141.3,81.9C840.8,906.4,840.8,921.2,830.7,927.1z"/>
<g>
	<g>
		<g>
			<path class="st16" d="M409.5,1136.6l-12.6-9.4c-6.3-3.6-16.4,2.2-22.7,13.1c-5.9,10.1-6.2,20.9-1.1,25.2v0.1l1,0.7
				c0.1,0,0.1,0.1,0.2,0.2l0,0l12.5,9.4l2.9-5.1c4.7-2.1,9.6-6.6,13.2-12.8c3.6-6.3,5.1-12.7,4.5-17.8L409.5,1136.6z"/>
			<path class="st17" d="M409.5,1136.6c6.3,3.6,6.3,15.3,0,26.1c-6.3,10.8-16.4,16.7-22.7,13.1c-6.3-3.6-6.3-15.3,0-26.2
				C393.1,1138.8,403.2,1133,409.5,1136.6z"/>
			<path class="st18" d="M404.8,1144.7c3.6,2.1,3.6,9,0,15.3s-9.6,9.8-13.3,7.7c-3.6-2.1-3.6-9,0-15.3
				C395.2,1146,401.1,1142.6,404.8,1144.7z"/>
			<path class="st16" d="M404.8,1144.7c-0.3-0.2-0.6-0.2-1-0.4c2.2,2.9,2,8.5-1.2,14c-3.3,5.9-8.7,9.2-12.3,8
				c0.4,0.5,0.6,1.1,1.2,1.4c3.6,2.1,9.6-1.4,13.3-7.7C408.4,1153.7,408.4,1146.8,404.8,1144.7z"/>
		</g>
		<g>
			<path class="st16" d="M657.2,992l-12.6-9.4c-6.3-3.6-16.4,2.2-22.6,13.1c-5.9,10.1-6.2,20.8-1.1,25.2v0.1l1,0.7
				c0.1,0,0.1,0.1,0.2,0.2l0,0l12.5,9.4l2.9-5.1c4.7-2.1,9.6-6.5,13.2-12.8c3.6-6.3,5.1-12.7,4.5-17.8L657.2,992z"/>
			<path class="st17" d="M657.2,992c6.3,3.6,6.3,15.3,0,26.1c-6.3,10.8-16.4,16.7-22.7,13.1s-6.3-15.3,0-26.2
				C640.8,994.2,651,988.4,657.2,992z"/>
			<path class="st18" d="M652.5,1000.1c3.6,2.1,3.6,9,0,15.3s-9.6,9.8-13.3,7.7s-3.7-9,0-15.3C643,1001.3,648.9,997.9,652.5,1000.1z
				"/>
			<path class="st16" d="M652.5,1000.1c-0.3-0.2-0.6-0.3-1-0.3c2.2,2.9,2,8.5-1.2,14c-3.3,5.9-8.7,9.2-12.3,8
				c0.4,0.5,0.7,1.1,1.2,1.4c3.6,2.1,9.6-1.4,13.3-7.7C656.3,1009.1,656.3,1002.2,652.5,1000.1z"/>
		</g>
		<g>
			<path class="st16" d="M251.6,1043.6l-12.6-9.4c-6.3-3.6-16.4,2.2-22.7,13.1c-5.9,10.1-6.2,20.8-1.1,25.2v0.1l1,0.7
				c0.1,0,0.1,0.1,0.2,0.2c0,0,0,0,0.1,0l12.5,9.4l2.9-5.1c4.7-2.1,9.6-6.5,13.2-12.8c3.6-6.3,5.1-12.7,4.5-17.8L251.6,1043.6z"/>
			<path class="st17" d="M251.6,1043.6c6.3,3.6,6.3,15.3,0,26.1c-6.3,10.8-16.4,16.7-22.7,13.1s-6.3-15.3,0-26.2
				C235.3,1045.9,245.3,1040,251.6,1043.6z"/>
			<path class="st18" d="M246.9,1051.7c3.7,2.1,3.7,9,0,15.3c-3.6,6.3-9.7,9.8-13.3,7.7c-3.7-2.1-3.7-9,0-15.3
				C237.3,1053,243.3,1049.6,246.9,1051.7z"/>
			<path class="st16" d="M246.9,1051.7c-0.3-0.2-0.6-0.2-1-0.4c2.2,2.9,2,8.5-1.2,14c-3.4,5.9-8.7,9.2-12.3,8
				c0.4,0.5,0.7,1.1,1.2,1.4c3.6,2.1,9.6-1.3,13.3-7.7C250.6,1060.7,250.6,1053.8,246.9,1051.7z"/>
		</g>
		<g>
			<polygon class="st19" points="661.9,979.6 381.5,1145.5 210.4,1045.8 489.9,863.9 661.9,963.5 			"/>
			<polygon class="st20" points="368.8,942.8 426.4,942.8 381.5,1129.5 381.5,1145.5 210.4,1045.8 210.4,1029.8 			"/>
			<polygon class="st21" points="661.9,963.5 381.5,1129.5 210.4,1029.8 489.9,863.9 			"/>
			<polygon class="st22" points="661.9,963.5 381.5,1129.5 210.4,1029.8 489.9,863.9 			"/>
		</g>
		<polygon class="st20" points="381.4,1083.5 381.4,885.4 288.6,831.3 288.6,1029.5 		"/>
		<polygon class="st19" points="583.5,963.9 583.5,765.8 381.4,885.4 381.4,1083.5 		"/>
		<path class="st1" d="M205.2,1010.4c-17.4-10.4-34.2-21.7-51.2-32.7c-16.9-11-33.9-22.5-51.9-31.7c-9.7-5-19.6-9.5-29.6-13.9
			l-29.9,17.4l-14.1-3.7v14.6h0.1c-0.1,1.9,1.1,3.8,3.5,5.2l154,88.8c4.8,2.7,12.6,2.7,17.4,0l39.8-23.1
			C230.4,1024.9,217.7,1017.8,205.2,1010.4z"/>
		<path class="st21" d="M828.7,675.7c-0.2,1.7-1.4,3.3-3.5,4.6l-48.7,28.3l0,0l-541.3,312.5l0,0l-19.7,11.4h-0.1l0,0l-11.8,6.8
			c-2.5,1.5-6,2.1-9.4,2.1v15c3.4,0.1,6.8-0.5,9.4-2l12.3-7.1l0,0l571.7-330l0,0l37.7-21.9c2.4-1.5,3.6-3.3,3.5-5.3l0,0L828.7,675.7
			L828.7,675.7z"/>
		<path class="st1" d="M825.2,670.2L671.9,581c-4.8-2.7-12.6-2.7-17.4,0l-49,28.5l0,0L187.7,850.4c-0.8,0.3-1.6,0.6-2.2,1.1
			L68.8,919.2l-0.2,0.1l0,0l-36.4,21.2c-4.8,2.7-4.8,7.3,0,10.1l154,88.8c4.8,2.7,12.6,2.7,17.4,0l12-6.9c0,0,455.7-262.6,457-263.4
			l152.6-88.7C830,677.5,830,673,825.2,670.2z"/>
		<g>
			<g>
				<path class="st23" d="M828.7,674.9L828.7,674.9v-14.6l-8.6,6.8L671.9,581c-4.8-2.7-12.6-2.7-17.4,0l-142.9,83l-14.1-3.7v14.6
					h0.1c-0.1,1.9,1.1,3.8,3.5,5.2l154,88.9c4.8,2.7,12.6,2.7,17.4,0l152.6-88.7C827.7,678.7,828.8,676.8,828.7,674.9z"/>
				<path class="st24" d="M663.2,770.9c3.4,0.1,6.8-0.5,9.4-2.1l152.6-88.7c2.4-1.5,3.6-3.3,3.5-5.3l0,0v-14.6l-8.6,6.8l-21.3-12.3
					l-135.5,58.6L663.2,770.9z"/>
				<path class="st25" d="M501.2,654.9c-4.8,2.7-4.8,7.3,0,10.1l154,88.8c4.8,2.7,12.6,2.7,17.4,0l152.6-88.7
					c4.8-2.7,4.8-7.3,0-10.1l-153.3-89.2c-4.8-2.7-12.6-2.7-17.4,0L501.2,654.9z"/>
			</g>
			<g>
				<path class="st23" d="M656.1,774.9L656.1,774.9v-14.6l-8.6,6.8L499.3,681c-4.8-2.7-12.6-2.7-17.4,0L216.2,833.9l-14.1-3.7v14.6
					h0.1c-0.1,1.9,1.1,3.8,3.5,5.2l154,88.9c4.8,2.7,12.6,2.7,17.4,0l275.4-158.7C655,778.7,656.2,776.7,656.1,774.9z"/>
				<path class="st24" d="M367.7,940.8c3.4,0.1,6.8-0.5,9.4-2.1L652.4,780c2.4-1.5,3.6-3.3,3.5-5.3l0,0v-14.6l-8.6,6.8l-162.7,68.7
					l-116.9,47.6L367.7,940.8z"/>
				<path class="st25" d="M205.7,825c-4.8,2.7-4.8,7.3,0,10.1l154.1,88.7c4.8,2.7,12.6,2.7,17.4,0L652.5,765c4.8-2.7,4.8-7.3,0-10.1
					l-153.3-89.1c-4.8-2.8-12.6-2.8-17.4,0L205.7,825z"/>
			</g>
			<g>
				<path class="st23" d="M359.7,945.3L359.7,945.3v-14.6l-8.6,6.8l-148.2-86.1c-4.8-2.7-12.6-2.7-17.4,0l-142.9,83l-14.1-3.7v14.6
					h0.1c-0.1,1.9,1.1,3.8,3.5,5.2l154,88.8c4.8,2.7,12.6,2.7,17.4,0l152.6-88.7C358.7,949.1,359.8,947.2,359.7,945.3z"/>
				<path class="st24" d="M194.1,1041.3c3.4,0.1,6.8-0.5,9.4-2l152.6-88.8c2.4-1.5,3.6-3.3,3.5-5.3l0,0v-14.6l-8.6,6.8l-21.2-12.3
					l-135.5,58.6L194.1,1041.3z"/>
				<path class="st25" d="M32.1,925.4c-4.8,2.7-4.8,7.3,0,10.1l154,88.8c4.8,2.7,12.6,2.7,17.4,0l152.6-88.7c4.8-2.7,4.8-7.3,0-10.1
					l-153.3-89.2c-4.8-2.7-12.6-2.7-17.4,0L32.1,925.4z"/>
			</g>
		</g>
	</g>
</g>
<path class="st26" d="M635.2,562.7c0.4-5.4,9.2-12.2,18.4-9.5c0,0,20.9-2.3,30,23.5c9.2,25.9-1,52.1-21.2,60.7
	c-20.2,8.6-37.3,3.5-37.3,3.5l17.2-45.6L635.2,562.7z"/>
<g>
	<path class="st27" d="M686.8,592.8c0.1,8.9-6.3,26.6-16.6,25c-11-1.7-13-17.7-12.2-28.9c0,0-8.4,0.8-16.8,1.7l1.1,4.8L625.1,641
		c0,0,17.1,5.1,37.3-3.5C678.3,630.7,688,612.9,686.8,592.8z"/>
	<path class="st27" d="M686.7,591.1c0-0.2,0-0.4-0.1-0.6c0,0.1,0,0.3,0,0.4C686.7,591,686.7,591,686.7,591.1z"/>
</g>
<path class="st13" d="M349,686.7l-3.8-7c0,0-1.7,22.7-10.8,36.8c-9.1,14.2-41.7,66.5-43.5,74.9s5.4,23.7,6.3,33.1
	c1,9.4-17.1,11.2-25.6,9.2s-18.4-0.1-27.5,5.6s-34.1,11.5-38.5,8.5s-3.3-7.2,2.9-11.9s14.8-9.7,18.4-11c3.4-1.4,16.8-11.4,23.8-17.2
	c7.1-5.9,15.7-21.4,20.9-36.8c5.1-15.3,39.4-112.4,41.2-124.8c1.9-12.4,5.8-20.5,12.1-25.2c6.3-4.7,20.7-9.2,26.1-7.2
	c5.3,2.1,42.1,38.8,42.1,38.8l10.5,32.7l-43,12L349,686.7z"/>
<path class="st15" d="M341.3,658.1c0,0-2.2,28.7-14,51.5c-11.7,22.8-42.9,73.5-44.3,85.2c-1.4,11.6,0,22.4-15.8,27.9
	c-14.9,5.3-49.6,27.7-64.4,21.4c0.1,1.4,1,2.6,2.6,3.8c4.4,3,29.4-2.8,38.5-8.5c9.2-5.7,19-7.6,27.5-5.6c3,0.7,7.2,1,11.4,0.5
	l13.2-5.6c0.8-1.2,1.2-2.5,1.1-4.2c-1-9.4-8-24.7-6.3-33.1c1.8-8.3,34.4-60.6,43.5-74.9c9.1-14.2,10.8-36.8,10.8-36.8l3.8,7
	l11.7,10.4l1.1-0.3l5.1-11.4C366.9,685.3,346,666.9,341.3,658.1z"/>
<path class="st13" d="M366.9,754.1c0,0-17.6,10.6-27.1,17.4c-9.6,6.7-19.9,12.2-27.2,20.4s-20.1,19.9-32.6,28.3
	c-12.5,8.4-30.2,20.6-48.1,34.8c-18,14.2-47.3,33.5-60.9,34.9c-13.7,1.4-41.8-15.5-45.7-17.8c-3.8-2.3-14.2-7.9-13.4,4.3
	c0.7,12.2,5.1,24.2,17.2,33.7s16.8,10.4,20,16.5c3.1,6.2,14.8,10.9,19.9,5.2c5.1-5.8,8.2-10.2,13.6-12.2c5.4-2.1,6.4-7.3,20.6-13.3
	c14.3-6.1,75.9-22.3,98-42.4s37.6-43.2,49.4-47.9c11.8-4.8,46.3-12.3,46.3-12.3l32.1-37.4l-43.6-18L366.9,754.1z"/>
<path class="st15" d="M401.4,794.7c-19.9,0.9-53.4,7.9-64.6,19c-11.1,11.2-36.8,46.6-89.9,68.5s-63.4,22.9-77.8,34.5
	c-14.5,11.6-58.2-25-53.1-48.1l0,0c-2.5,0.2-4.4,2.1-4.1,7.5c0.7,12.2,5.1,24.2,17.2,33.7s16.8,10.4,20,16.5
	c3.1,6.2,14.8,10.9,19.9,5.2c5.1-5.8,8.2-10.2,13.6-12.2s6.4-7.3,20.6-13.3c14.3-6.1,75.9-22.3,98-42.4
	c22.1-20.1,37.6-43.2,49.4-47.9c11.8-4.8,46.3-12.3,46.3-12.3l6-6.9L401.4,794.7z"/>
<path class="st13" d="M589.5,719.8c8.9-3.9,13.6-7.7,13.6-7.7l-1,42.4c0,0-14.3,3.6-33.9,13.2c-19.5,9.6-43.1,19.4-47,20.9
	s-17.8,3.6-22.9,6.9c-5.1,3.4-8.8,6.3-14.1,7.9c-5.3,1.6-7.9,0.4-8.7,3c-0.8,2.6,6,3.7,6,3.7s-3.3,2.1-8.4,5.2
	c-5.1,3-8.9,3.2-7.6,5.6c1.3,2.4,6.6,2.1,9.3,1.1c2.7-1.1,18.2-9.8,18.2-9.8s-17.2,11.4-19.3,13.2c-2.1,1.8-4.1,2-2.6,4.2
	s7,1.3,10.6-1.1c3.6-2.2,18.4-13,17.7-12.4c-0.7,0.6-6.1,5.9-8.3,8c-5.9,5.7-10.3,7.4-7.1,9.4c3,1.9,5.2-0.3,10-3.6s6.4-4.9,8.9-6.3
	c2.4-1.6,8.2-4.4,8.2-4.4s-6.6,5.6-7.9,7.3c-1.4,1.8-7.6,8.2-7.2,9.2s4.6,2.1,7.8-2.1c3.1-4.1,4.8-4.2,6.3-5.4s14.6-9.1,18.5-11.8
	c3.8-2.6,12.5-13.5,15-15.5c2.6-2.1,60.6-16.8,68.4-19c7.7-2.3,13.5-8.8,16.1-13.1c2.6-4.4,3.4-12.4,3.2-26.2
	c-0.2-15.7,2.4-29.4,3.5-36.9s3.5-21.1,2.9-27.3c-0.6-6.3-4.3-14.2-4.3-14.2s-10.3-8.9-18.9-9.2c-8.6-0.2-30.9,17.3-30.9,17.3
	L589.5,719.8z"/>
<path class="st15" d="M481.6,810.2c2.4-1.4,16-9.2,16-9.2s-14.8,8.5-20.7,7.7l0,0C478.7,809.7,481.6,810.2,481.6,810.2z"/>
<path class="st15" d="M602.1,754.5c0,0,8.5-0.9,15.2,3.4c0,0-5.2-7.4-15.1-6.9L602.1,754.5z"/>
<path class="st15" d="M599.9,660.8c-7,4.2-13.9,9.4-15.9,10.9l-0.1,4.7l5.5,43.3c8.9-3.9,13.6-7.7,13.6-7.7
	c1.8-5.8-1.4-47,11.7-52.2C622.4,656.9,610.9,658.8,599.9,660.8z"/>
<path class="st13" d="M564.3,628.4c-6.8-3.8-14.4-9.4-36.1,0.3C506.4,638.2,564.3,628.4,564.3,628.4z"/>
<path class="st13" d="M499,646.6c-14.3,10.1-34.5,21.6-47.3,24.6s-18.1,6.5-33.9,19c-15.7,12.5-66.4,38.5-71.5,44.2
	s-18.8,25.4-18.9,28.9s9.3,0.5,11.4-1.8c2.1-2.2,11.9-7.7,13.6-9.8c1.6-2.1,9.2-9.1,10.8-9.6s-7,13-8,16.2c-1,3.1,2.5,3.1,7.1-2.7
	c4.7-5.9,12.3-12,16.4-14.9s5-6.9,8.4-11.6c3.4-4.7,55.2-28.6,62.9-34.6c7.7-6,59.3-27.2,59.3-27.2L499,646.6z"/>
<path class="st28" d="M426.5,687.8L393,652.4c0,0,3.8,9.8-16.4,26.3c-20.2,16.5-27.5,8-27.5,8s9.1,12.6,10.4,20.8
	s-0.2,28.4,14.2,41.6l-6.6,5c0,0,24.6-4,33.1,15.7c8.5,19.6-3.2,33.6-3.2,33.6s42.1-2.1,53.4-2.5c11.3-0.5,35.2-5,43.8-9.9
	c8.5-5,22.6-56.1,22.6-56.1l-31.7-36.1L426.5,687.8z"/>
<path class="st29" d="M376.6,678.7c-20.2,16.5-27.5,8-27.5,8s9.1,12.6,10.4,20.8s-0.2,28.4,14.2,41.6c0,0,37.3-19.9,41.3-22.2
	c8.1-4.7,27.1-15.2,35.6-25c3.6-4.1-25.7-11.5-24-14.1L393,652.4C393,652.4,396.7,662.2,376.6,678.7z"/>
<path class="st29" d="M493.9,790.9c4.9-2.8,11.7-21.1,16.5-35.9c-5.5-0.7-9.9,0.7-12.4,5.5c-11.7,22.6-79.1,32.7-96.8,34.4
	c-1.9,5.4-4.5,8.6-4.5,8.6s42.1-2.1,53.4-2.5C461.5,800.3,485.5,795.8,493.9,790.9z"/>
<path class="st30" d="M579.3,631c-7.6-1.6-10.7-3.4-19.3-2.5s-18.9,2.2-31.8,0.1c-12.9-2.1-25.7,3.8-30.7,22.4
	c-5,18.6-61,34.3-71.1,36.7c0,0,9.4,16.4,22,26.1c12.5,9.6,31.9,17.4,40.6,27.7c8.7,10.4,11.9,32.7,4.9,49.3c0,0,18.6-9.3,27.5-21.5
	s25.1-28.9,38.9-36c13.8-7.1,27.1-10.4,32-16.1c4.9-5.7,7.1-41.3,11.6-50.5c4.5-9.1,21.9-9.4,29.4-2.5c0,0-0.3-4.9-10.2-10.1
	L579.3,631z"/>
<path class="st13" d="M643.3,562.4c-5.1-0.7-11.4,0.2-17,4s-6.1,4.9-6.9,6.4c-0.8,1.7-6.8,2.8-12.1,9c-5.2,6.2-6.3,8.4-9.5,11.4
	s-2.4,6.4-1.6,11.2c0.9,4.8,1.7,6.1,0.6,8.1c-1.1,2.1-11.6,16.4-17.5,18.6c-5.8,2.1-14.8,0.3-20.4,4.4c-5.6,4,23.5,9.3,33.7,10.5
	s30.6,8.2,30.6,8.2s-3.6-3.3-2.2-7.5c1.4-4.2,14.4-15.5,20.8-18.7c0,0,4.3,2.1,10.4-3.1c6.1-5.3,8.1-13.9,0.5-12.6
	c0,0,5.7-9.1,5.4-18s2.6-12.1,0.5-16.9C656.1,572.5,644.3,565,643.3,562.4z"/>
<path class="st15" d="M641.7,627.9c-4.5-2.8-3.1-6.4-3.1-6.4s-6.3,1-12.2-0.3c-4.4-1-30.1-16.7-30.9-22.7l0,0
	c-0.1,1.8,0.3,3.7,0.7,6c0.6,3.2,1.2,4.9,1.1,6.3c9.9,9.9,32.6,16.1,32.7,16.9s-9.8,4.7-12.9,12.5c-3.1,7.8-1.2,11.8-1.2,11.8
	c4.3,1.3,7.2,2.3,7.2,2.3s-3.6-3.3-2.2-7.5C622.3,642.4,635.3,631.1,641.7,627.9z"/>
<path class="st31" d="M592.3,717.3c4.1-4.8,6.3-30.8,9.6-44.3c-8.9,25.8-28.8,36.8-48.4,46.8c-19.2,9.7-37,32-56.2,43.3
	c1.2,9.2,0.2,19.2-3.4,27.7c0,0,18.6-9.3,27.5-21.5c8.9-12.2,25.1-28.9,38.9-36C574,726.2,587.5,722.9,592.3,717.3z"/>
<path class="st31" d="M499.7,644.6c-0.9,2-1.6,4.1-2.2,6.3c-0.4,1.5-1.2,2.9-2.1,4.4c13.5,15.1,27.9,16.1,27.9,16.1
	S498.3,657.2,499.7,644.6z"/>
<path class="st31" d="M568.9,711.4c5.3-3.2,10.4-6.7,14.9-10.9l0.1-0.1c-11,7.6-34.3-1.9-40.1-11.3
	C549.9,702.4,562.7,709,568.9,711.4z"/>
<path class="st32" d="M394.2,738c-9-5.6-12.9-15.9-15.6-21c-2.8-5.1-4.2-21.4-11.7-31.5c-12.9,7-17.9,1.4-17.9,1.4
	s9.1,12.6,10.4,20.8s-0.2,28.4,14.2,41.6C373.5,749,383.9,743.5,394.2,738L394.2,738z"/>
<path class="st12" d="M158.2,531.5c-6.1,11.2-24.3,17.3-29.4,27.4c-5.1,10.2-10.9,31.2,3.3,70.1c14.2,39,15.4,77.2,14,94.4
	c-1.6,17.2-4.5,37.5-4.3,44.5c0.2,7.1,26.6,23.3,68.6,16.7c42-6.5,67.4-41,68.8-45.1c1.6-4-9.1-20.8-10.6-66.3
	c-1.6-45.6-2.5-89.2-14.2-113.5c-11.6-24.3-25.9-35.4-37.5-33.9C205.3,527.5,158.2,531.5,158.2,531.5z"/>
<path class="st9" d="M304.3,759.2c-0.5-0.5-9.1-0.7-16.6-1.3c-6-0.5-10.5-2.3-11.5-2.9c-1.1-0.6-1.7-1.4,0.4-1.8
	c2.3-0.4,7.1,0.7,11.2-0.6c7.6-2.3,7.6-5.7-0.7-5.2c-8.3,0.6-8.9,0.2-16.5-2.1s-14.8,0.2-19.8-2.2s-63-49.3-72.3-54.9l-2.3-35.6
	c-4.9,1.8-29.7,9.8-40.3,6.8c3.4,27.2,11.1,40.5,13.1,43.8c2.1,3.7,28.3,21.3,53.3,34.6c26,13.8,39.6,16.3,46.7,22.1
	s14.4,12.8,24.4,13.2c10.1,0.4,20-1.2,23.7-3.3C300.7,767.6,305.2,760.1,304.3,759.2z"/>
<path class="st12" d="M156.3,564.5c-7.2-11.4-28-16.7-35.6,5.1s8.9,88.5,11.4,92c2.4,3.3,34.9,1.8,45.5-7.3c1-0.9,1.4-2.2,1.3-3.6
	C177.6,640.7,177.1,597.4,156.3,564.5z"/>
<path class="st13" d="M169.7,498.1c0,0-2.9-11.5-10.4-11.5s-5.2,9.8-3.7,13.9c1.5,4,8.1,10.9,12.1,7.2c0,0-0.9,6.9,4,11.8
	c4.9,4.9,31.2,17.6,39.7,15.2c8.6-2.3,10.4-8.7,10.9-15.5c0.6-6.9,2.1-30.3,1.5-32.5c-0.6-2.3-2.6-8.1-2.8-11.2
	c-0.3-3.1,0.6-19-3.4-18c-5.1,1.4-8.4,3.8-31.9,5.3c-12.9,0.8-13,11.2-10.9,17.9s-1.5,20.4-1.5,20.4L169.7,498.1z"/>
<g>
	<g>
		<g>
			<path class="st33" d="M204.9,599.1c-0.8-0.1-1.5-0.1-2.2,0c-1.3,0.1-2.5,0.4-3.4,0.8c-0.9,0.5-1.6,1.1-2.1,2
				c-0.4,0.8-0.7,1.8-0.7,2.8c-0.1,1,0,2.3,0.2,3.8l0.1,0.5l-2.1,0.2c-0.4,0-0.8,0.1-1.1,0.2c-0.4,0.1-0.7,0.3-0.9,0.6
				c-0.2,0.2-0.3,0.4-0.4,0.6c-0.1,0.2-0.2,0.5-0.2,0.9c0,0.3,0,0.5,0,0.7c0,0.2,0,0.4,0.1,0.7l0.1,0.5l4.9-0.6l1.7,12
				c0.1,0.4,0.1,0.8,0.3,1c0.1,0.3,0.3,0.5,0.4,0.7c0.2,0.2,0.4,0.4,0.7,0.6c0.3,0.1,0.5,0.2,0.7,0.2c0.2,0.1,0.5,0.1,0.9,0
				c0.3,0,0.6,0,0.8-0.1c0.2,0,0.5-0.1,0.9-0.1l0.6-0.1l-2-14.8l3.8-0.4c0.4,0,0.7-0.1,1-0.2c0.3-0.1,0.6-0.3,0.8-0.6
				c0.1-0.2,0.3-0.4,0.4-0.6c0.1-0.2,0.1-0.5,0.1-0.8c0-0.3,0-0.5,0-0.7c0-0.2,0-0.4-0.1-0.7l-0.1-0.5l-6.4,0.7l-0.1-0.5
				c-0.1-0.9-0.2-1.6-0.2-2.1c0-0.5,0-1,0-1.4c0-0.5,0.2-0.7,0.3-0.8c0.1-0.2,0.3-0.3,0.6-0.5c0.3-0.1,0.6-0.2,1.1-0.2
				c0.2,0,0.4,0,0.8,0c0.4,0,0.7,0,0.9,0c0.3,0,0.6-0.1,0.9-0.2c0.4-0.1,0.7-0.3,0.9-0.5c0.2-0.2,0.4-0.5,0.5-0.9
				c0.2-0.4,0.2-0.8,0.3-1.3l0-0.4l-1-0.2C206.2,599.3,205.7,599.2,204.9,599.1z"/>
			<path class="st33" d="M213,605.6c0.7-0.1,1.3-0.4,1.8-0.9c0.5-0.5,0.7-1.2,0.6-1.9c-0.1-0.7-0.4-1.3-1-1.7
				c-0.6-0.5-1.3-0.7-2-0.6c-0.8,0.1-1.4,0.4-1.8,0.9c-0.5,0.6-0.7,1.2-0.6,1.9c0.1,0.7,0.4,1.3,1,1.7
				C211.6,605.5,212.3,605.7,213,605.6z"/>
			<path class="st33" d="M217.5,621.9c0,0-0.1-0.1-0.2-0.5l-1.5-11.4c0-0.4-0.1-0.7-0.2-1c-0.1-0.3-0.2-0.5-0.4-0.7
				c-0.2-0.2-0.4-0.4-0.7-0.6c-0.2-0.1-0.4-0.2-0.6-0.2c-0.2-0.1-0.5-0.1-0.9-0.1c-0.3,0-0.6,0-0.8,0c-0.2,0-0.5,0-0.9,0.1l-0.5,0.1
				l1.9,14.7c0.1,1.1,0.5,1.9,1.1,2.4c0.6,0.6,1.5,0.7,2.6,0.6c0.9-0.1,1.5-0.5,1.9-1c0.4-0.5,0.5-1.2,0.4-1.9l-0.1-0.5l-0.5,0.1
				C217.8,622,217.6,621.9,217.5,621.9z"/>
			<path class="st33" d="M226.2,606l-0.2-2c0-0.4-0.1-0.7-0.2-1c-0.1-0.3-0.2-0.5-0.3-0.7c-0.2-0.2-0.4-0.4-0.6-0.6
				c-0.2-0.1-0.4-0.2-0.6-0.3c-0.2-0.1-0.5-0.1-0.8-0.1c-0.3,0-0.5,0-0.7,0c-0.2,0-0.4,0-0.8,0.1l-0.5,0l0.6,4.9l-1.8,0.2
				c-0.4,0-0.7,0.1-0.9,0.2c-0.3,0.1-0.6,0.3-0.7,0.6c-0.1,0.2-0.3,0.4-0.3,0.6c-0.1,0.2-0.1,0.5-0.1,0.8c0,0.3,0,0.5,0,0.7
				c0,0.1,0,0.4,0.1,0.7l0.1,0.5l4.2-0.5l0.8,6.4c0.4,2.8,1,4.7,2,5.8c1,1.1,2.5,1.5,4.4,1.2c1.3-0.2,2.2-0.6,2.8-1.3
				c0.6-0.7,0.8-1.6,0.5-2.7l-0.1-0.5l-0.8,0.4c-0.2,0.1-0.5,0.2-0.8,0.3c-0.3,0.1-0.7,0.2-1,0.2c-0.9,0.1-1.5,0-1.8-0.5
				c-0.3-0.4-0.6-1.2-0.9-3.4l-0.8-6.4l2.8-0.3c0.3,0,0.6-0.1,0.9-0.2c0.3-0.1,0.5-0.3,0.7-0.5c0.1-0.2,0.2-0.4,0.3-0.5
				c0.1-0.2,0.1-0.4,0.1-0.8c0-0.3,0-0.5,0-0.6c0-0.1,0-0.4-0.1-0.6l-0.1-0.5L226.2,606z"/>
		</g>
		<g>
			<path class="st12" d="M239.1,611.1c-0.1-0.5-0.1-0.9,0-1.2c0-0.3,0.2-0.6,0.4-0.8c0.2-0.2,0.4-0.4,0.6-0.4
				c0.2-0.1,0.5-0.2,0.9-0.4c0.1-0.1,0.2-0.1,0.3-0.1c1.2-0.5,2.1-1.1,2.6-1.7c0.5-0.6,0.7-1.5,0.5-2.7c-0.1-1-0.6-1.8-1.4-2.3
				c-0.8-0.5-2-0.7-3.5-0.6c-0.6,0.1-1.2,0.2-1.8,0.4c-0.6,0.2-1.1,0.4-1.5,0.7c-0.4,0.3-0.7,0.5-1,0.8c-0.3,0.2-0.5,0.5-0.7,0.6
				l-0.2,0.2c-0.4-0.1-0.7-0.3-1-0.6c-0.3-0.3-0.5-0.7-0.5-1.1c0-0.4,0.1-0.9,0.5-1.3c0.6-0.7,1.4-1.2,2.5-1.7
				c1-0.4,2.2-0.7,3.3-0.8c1.3-0.1,2.5,0,3.6,0.2c1,0.2,1.8,0.6,2.5,1.1c0.6,0.5,1.1,1.1,1.5,1.7c0.3,0.7,0.6,1.4,0.7,2.2
				c0.2,1.8-0.1,3.3-0.9,4.3c-0.8,1.1-2,1.9-3.8,2.6c-0.2,0.1-0.4,0.2-0.4,0.3c-0.1,0.1-0.1,0.3-0.1,0.6l0.4,3.7
				c-0.3,0-0.5,0.1-0.6,0.1c-0.1,0-0.3,0-0.5,0c-0.2,0-0.4,0-0.5,0c-0.1,0-0.2,0-0.4-0.1c-0.2,0-0.3-0.1-0.4-0.1
				c-0.1-0.1-0.2-0.2-0.3-0.3c-0.1-0.1-0.2-0.2-0.3-0.4c-0.1-0.1-0.1-0.3-0.2-0.5c-0.1-0.2-0.1-0.4-0.1-0.7L239.1,611.1z
				 M240.5,620.6c-0.4-0.3-0.6-0.7-0.7-1.2c-0.1-0.5,0.1-1,0.4-1.4c0.3-0.4,0.7-0.6,1.2-0.7c0.5-0.1,0.9,0,1.3,0.3
				c0.4,0.3,0.6,0.7,0.7,1.2c0.1,0.5-0.1,1-0.4,1.4c-0.3,0.4-0.7,0.6-1.2,0.7C241.4,621,240.9,620.9,240.5,620.6z"/>
			<path class="st33" d="M241.9,621.3c-0.6,0.1-1.2,0-1.6-0.4c-0.5-0.4-0.8-0.9-0.8-1.5c-0.1-0.6,0.1-1.2,0.5-1.7
				c0.4-0.5,0.9-0.8,1.5-0.9c0.6-0.1,1.2,0.1,1.6,0.4c0.5,0.4,0.8,0.9,0.8,1.5c0.1,0.6-0.1,1.2-0.4,1.7
				C243,620.9,242.5,621.2,241.9,621.3z M241.5,617.7c-0.4,0.1-0.7,0.2-0.9,0.5c-0.2,0.3-0.3,0.7-0.3,1c0,0.4,0.2,0.7,0.5,0.9
				c0.3,0.2,0.6,0.3,1,0.2c0.4-0.1,0.7-0.2,0.9-0.5c0.2-0.3,0.3-0.6,0.3-1c0-0.4-0.2-0.7-0.5-0.9
				C242.2,617.7,241.9,617.6,241.5,617.7z M243.2,615.4l-1,0.1c-0.1,0-0.3,0-0.6,0.1c-0.3,0-0.4,0-0.6,0c-0.1,0-0.3,0-0.4-0.1
				c-0.2,0-0.4-0.1-0.6-0.2c-0.1-0.1-0.2-0.2-0.3-0.3c-0.2-0.1-0.3-0.3-0.4-0.5c-0.1-0.2-0.1-0.4-0.2-0.6c-0.1-0.2-0.1-0.5-0.1-0.7
				l-0.2-2c-0.1-0.5-0.1-0.9,0-1.3c0.1-0.4,0.3-0.8,0.6-1.1c0.3-0.2,0.5-0.4,0.7-0.5c0.2-0.1,0.5-0.2,0.9-0.4l0.3-0.1
				c1.1-0.5,1.9-1,2.4-1.6c0.4-0.5,0.6-1.3,0.5-2.4c-0.1-0.9-0.5-1.5-1.2-1.9c-0.7-0.5-1.8-0.6-3.2-0.5c-0.6,0.1-1.2,0.2-1.7,0.4
				c-0.5,0.2-1,0.4-1.4,0.6c-0.4,0.2-0.7,0.5-1,0.7c-0.3,0.2-0.5,0.4-0.6,0.6l-0.4,0.4l-0.3-0.1c-0.5-0.1-0.9-0.3-1.2-0.7
				c-0.4-0.4-0.6-0.8-0.6-1.4c0-0.6,0.2-1.1,0.6-1.6c0.6-0.7,1.5-1.3,2.7-1.8c1.1-0.5,2.3-0.7,3.5-0.8c1.4-0.1,2.6,0,3.7,0.2
				c1.1,0.3,2,0.7,2.6,1.2c0.7,0.5,1.2,1.2,1.6,1.9c0.4,0.7,0.6,1.5,0.7,2.4c0.2,2-0.1,3.5-0.9,4.7c-0.8,1.1-2.2,2-4,2.8
				c-0.2,0.1-0.2,0.1-0.2,0.1c0,0,0,0.1,0,0.3L243.2,615.4z M240.5,614.6c0,0,0,0,0.2,0.1c0.2,0,0.3,0,0.4,0.1c0,0,0.2,0,0.4,0
				c0.2,0,0.4,0,0.5,0l0.2,0l-0.4-3.3c0-0.4,0-0.7,0.1-0.9c0.1-0.2,0.3-0.4,0.7-0.5c1.7-0.7,2.9-1.5,3.6-2.5c0.7-1,1-2.3,0.8-4
				c-0.1-0.7-0.3-1.4-0.6-2c-0.3-0.6-0.8-1.1-1.3-1.6c-0.6-0.5-1.3-0.8-2.3-1c-1-0.2-2.1-0.3-3.4-0.2c-1.1,0.1-2.2,0.3-3.2,0.8
				c-1,0.4-1.8,0.9-2.3,1.6c-0.3,0.3-0.4,0.6-0.4,0.9c0,0.3,0.1,0.6,0.3,0.8c0.2,0.2,0.3,0.3,0.5,0.4l0,0c0.2-0.2,0.4-0.4,0.7-0.7
				c0.3-0.3,0.7-0.5,1.1-0.8c0.4-0.3,0.9-0.5,1.6-0.7c0.6-0.2,1.3-0.3,1.9-0.4c1.6-0.1,2.8,0.1,3.7,0.6c0.9,0.6,1.5,1.5,1.6,2.6
				c0.1,1.3-0.1,2.3-0.6,3c-0.5,0.7-1.5,1.3-2.7,1.8l-0.3,0.1c-0.5,0.2-0.8,0.3-0.9,0.4c-0.1,0-0.2,0.1-0.5,0.4
				c-0.2,0.1-0.3,0.3-0.3,0.5c0,0.3,0,0.6,0,1l0.2,2c0,0.2,0.1,0.4,0.1,0.6c0,0.2,0.1,0.3,0.2,0.5c0,0.1,0.1,0.2,0.2,0.2
				C240.3,614.4,240.4,614.5,240.5,614.6L240.5,614.6z"/>
		</g>
	</g>
	<g>
		<g>
			<path class="st34" d="M211.4,628.3c-0.6,0.1-1.1,0.3-1.5,0.6c-0.4,0.3-0.8,0.7-1.1,1.2c-0.3,0.5-0.5,1.1-0.6,1.9L206,642
				l-4.9-8.7c-0.4-0.7-0.8-1.3-1.2-1.6c-0.4-0.4-0.9-0.7-1.4-0.8c-0.5-0.1-1.1-0.2-1.7-0.1c-0.6,0.1-1.2,0.2-2,0.3l-0.8,0.2l9,14.8
				c0.4,0.6,0.8,1.1,1.2,1.4l-1.2,5c-0.3,1-0.5,1.5-0.6,1.6c-0.1,0.2-0.5,0.4-0.8,0.4c-2,0.5-3,1.7-3,3.5l0,0.4l0.8,0.1
				c0.3,0,0.7,0,1.3,0c0.6,0,1.2-0.1,1.8-0.3c0.7-0.2,1.3-0.4,1.8-0.6c0.5-0.2,1-0.5,1.3-0.8c0.4-0.3,0.7-0.7,1-1.2
				c0.3-0.4,0.5-0.9,0.7-1.3c0.2-0.4,0.4-1,0.6-1.7l6.1-24.6l-0.7,0.1C212.5,628.1,211.9,628.2,211.4,628.3z"/>
			<path class="st34" d="M222.6,626.1c-1.4,0.2-2.6,0.7-3.7,1.4c-1.1,0.7-1.9,1.5-2.5,2.5c-0.6,1-1,2.1-1.2,3.2
				c-0.2,1.1-0.2,2.4-0.1,3.6c0.2,1.2,0.5,2.4,1,3.4c0.5,1,1.1,1.9,1.9,2.6c0.8,0.7,1.8,1.2,3,1.4c1.2,0.2,2.4,0.2,3.8-0.1
				c0.8-0.2,1.6-0.4,2.3-0.7c0.8-0.3,1.4-0.6,1.8-0.8c0.5-0.3,0.9-0.5,1.3-0.8c0.6-0.4,0.7-0.5,0.8-0.6c0.1-0.1,0.2-0.2,0.3-0.3
				l0.2-0.2l-0.1-0.3c-0.2-0.5-0.4-0.8-0.6-1.1c-0.3-0.3-0.6-0.5-0.9-0.5c-0.3,0-0.6,0-0.9,0c-0.3,0-0.6,0.2-0.9,0.3
				c-1.5,0.8-2.8,1.3-3.9,1.5c-1.2,0.3-2.2,0.1-2.9-0.6c-0.7-0.6-1.2-1.3-1.4-2.3l9.2-1.9c0.9-0.2,1.6-0.6,2-1.1
				c0.4-0.6,0.5-1.3,0.4-2.2c-0.4-2.4-1.5-4.1-3.1-5.3C226.9,626.1,224.9,625.7,222.6,626.1z M220.4,631.3c0.6-0.9,1.4-1.4,2.7-1.6
				c1.2-0.2,2.2,0,2.9,0.6c0.6,0.6,1.1,1.3,1.4,2.3l-7.7,1.5C219.7,633.1,219.9,632.1,220.4,631.3z"/>
			<path class="st34" d="M246,632.2c-0.4-0.6-0.9-1.1-1.5-1.4c-0.6-0.3-1.3-0.5-2-0.7c-0.7-0.1-1.5-0.2-2.5-0.2
				c-1.3,0-1.9-0.2-2.2-0.3c-0.4-0.2-0.6-0.5-0.6-0.9c-0.1-0.5,0.1-0.8,0.3-1.1c0.6-0.6,2.1-1,4.2-0.7c0.3,0,0.6,0,0.8,0
				c0.3,0,0.6-0.1,0.9-0.2c0.4-0.2,0.7-0.5,0.9-0.9c0.2-0.4,0.3-0.9,0.3-1.4l0-0.3l-1-0.3c-0.5-0.2-1.2-0.3-2.1-0.4
				c-0.9-0.1-1.9,0-2.8,0.1c-1.9,0.3-3.3,1-4.3,2.1c-1,1.1-1.4,2.4-1.2,3.9c0.2,1.5,0.8,2.5,2,3.2c1.1,0.6,2.6,0.9,4.6,0.9
				c1.1,0,1.8,0.1,2.3,0.4c0.4,0.3,0.7,0.7,0.7,1.2c0.1,0.4,0.2,1.5-2.3,2.1c-1,0.2-2.2,0.3-3.6,0.1c-0.3,0-0.7,0.1-1.1,0.1
				c-0.4,0.1-0.8,0.4-1.1,0.9c-0.3,0.4-0.5,1-0.6,1.7l0,0.3l0.6,0.2c0.2,0.1,0.5,0.1,0.9,0.2c0.4,0.1,0.8,0.1,1.3,0.2
				c0.5,0,1.1,0,1.8,0c0.7-0.1,1.4-0.2,2.1-0.3c1.9-0.4,3.4-1.2,4.4-2.1c1-1,1.4-2.4,1.2-4.1C246.5,633.5,246.3,632.8,246,632.2z"/>
		</g>
		<g>
			<path class="st12" d="M250.6,637.3c-0.4-0.3-0.6-0.6-0.6-1.1c-0.1-0.5,0.1-0.9,0.3-1.4c0.3-0.4,0.7-0.7,1.1-0.8
				c0.5-0.1,0.9,0,1.2,0.3c0.4,0.3,0.6,0.6,0.6,1.1c0.1,0.5-0.1,0.9-0.3,1.3c-0.3,0.4-0.7,0.7-1.1,0.8
				C251.3,637.6,250.9,637.5,250.6,637.3z M249.7,630.5l-1.8-14.2c0.3,0,0.4-0.1,0.6-0.1c0.1,0,0.3,0,0.5-0.1c0.2,0,0.4,0,0.5,0
				c0.1,0,0.2,0,0.4,0.1c0.2,0,0.3,0.1,0.4,0.1c0.1,0.1,0.2,0.1,0.3,0.2c0.1,0.1,0.2,0.2,0.2,0.4c0.1,0.1,0.1,0.3,0.2,0.5
				c0.1,0.2,0.1,0.4,0.1,0.6l1.4,13.7c-0.9,0.2-1.6,0.2-2,0.1C250,631.7,249.8,631.2,249.7,630.5z"/>
			<path class="st34" d="M251.9,637.9c-0.6,0.1-1.1,0-1.5-0.3c-0.4-0.3-0.7-0.8-0.8-1.4c-0.1-0.6,0.1-1.2,0.4-1.7
				c0.4-0.5,0.8-0.8,1.4-0.9c0.6-0.1,1.1,0,1.5,0.3c0.4,0.3,0.7,0.8,0.8,1.4c0.1,0.6-0.1,1.1-0.4,1.7
				C252.9,637.5,252.4,637.8,251.9,637.9z M251.5,634.5c-0.3,0.1-0.6,0.3-0.8,0.6c-0.2,0.3-0.3,0.6-0.3,1c0,0.4,0.2,0.7,0.5,0.9l0,0
				c0.3,0.2,0.6,0.3,0.9,0.2c0.4-0.1,0.6-0.3,0.8-0.6c0.2-0.3,0.3-0.6,0.3-1c0-0.4-0.2-0.7-0.5-0.9
				C252.1,634.4,251.8,634.4,251.5,634.5z M252.2,632.3c-0.8,0.2-1.4,0.2-1.9,0c-0.6-0.2-0.9-0.8-1-1.7l-1.8-14.7l1-0.1
				c0.1,0,0.3,0,0.5-0.1c0.2,0,0.4,0,0.5,0c0.1,0,0.2,0,0.4,0.1c0.2,0,0.4,0.1,0.5,0.2c0.1,0.1,0.2,0.2,0.3,0.3
				c0.2,0.1,0.3,0.3,0.4,0.5c0.1,0.2,0.1,0.3,0.2,0.6c0.1,0.2,0.1,0.5,0.1,0.7l1.5,14.1l-0.4,0.1
				C252.4,632.2,252.3,632.3,252.2,632.3z M248.4,616.7l1.7,13.8c0.1,0.8,0.4,1,0.5,1c0.2,0.1,0.6,0.1,1.4,0l-1.4-13.3
				c0-0.2-0.1-0.4-0.1-0.6c0-0.2-0.1-0.3-0.1-0.4c0-0.1-0.1-0.1-0.1-0.2c-0.1-0.1-0.2-0.2-0.3-0.2c0,0,0,0-0.2-0.1
				c-0.2,0-0.3,0-0.4-0.1c0,0-0.2,0-0.4,0c-0.2,0-0.4,0-0.5,0L248.4,616.7z"/>
		</g>
	</g>
	<g>
		<path class="st35" d="M229.3,590.8c-4.8-0.3-14.5-2.7-20,0.2c-0.5,0.2-1.2,0.9-1.4,1.4l-1.2,3.5c1.7-1.2,6.3-3.1,8-3.5
			c4.9,6.7,13.5,5.7,18.6,0.6c1.2-1.2,2.7-2.8,2.9-4.2c-2.9,1.2-5.5-3-9.6-5c-6.2-3.1-12-0.2-12.3,4.6
			C218.7,587.5,227.1,589.7,229.3,590.8"/>
	</g>
</g>
</svg>
