<?xml version="1.0" encoding="utf-8"?>
<!-- Generator: Adobe Illustrator 24.0.0, SVG Export Plug-In . SVG Version: 6.00 Build 0)  -->
<svg version="1.1" id="Warstwa_1" xmlns="http://www.w3.org/2000/svg" xmlns:xlink="http://www.w3.org/1999/xlink" x="0px" y="0px"
	 viewBox="0 0 863 1515" style="enable-background:new 0 0 863 1515;" xml:space="preserve">
<style type="text/css">
	.st0{opacity:0.15;fill:#ABB9BC;enable-background:new    ;}
	.st1{fill:#F0F0F0;}
	.st2{fill:#FFF9FF;}
	.st3{fill:#D3BAE7;}
	.st4{fill:#752939;}
	.st5{fill:#BCBACE;}
	.st6{fill:#1A685A;}
	.st7{fill:#409682;}
	.st8{fill:#4EAF9D;}
	.st9{fill:#FBC8A9;}
	.st10{fill:#484F5E;}
	.st11{fill:#222A52;}
	.st12{fill:#263159;}
	.st13{fill:#CFD718;}
	.st14{opacity:0.5;fill:#CFD718;enable-background:new    ;}
	.st15{fill:#FCEA95;}
	.st16{fill:#FABC9A;}
	.st17{fill:#10934F;}
	.st18{opacity:0.6;fill:#EDD262;enable-background:new    ;}
	.st19{fill:#BD1C1C;}
	.st20{fill:#CF2D2D;}
	.st21{fill:#E03D3D;}
	.st22{fill:#ED5858;}
	.st23{fill:#363B46;}
	.st24{fill:#6AC4D1;}
	.st25{opacity:0.5;fill:#A8A9AB;enable-background:new    ;}
	.st26{fill:#D97B38;}
	.st27{fill:#CA6F2E;}
	.st28{fill:#63BAC1;stroke:#63BAC1;stroke-width:0.8935;stroke-miterlimit:10;}
	.st29{opacity:0.5;fill:#2C9BA3;enable-background:new    ;}
	.st30{fill:#D7D8D3;}
	.st31{opacity:0.5;fill:#407AAD;enable-background:new    ;}
	.st32{fill:url(#SVGID_1_);}
	.st33{fill:#19203A;}
	.st34{fill:#FFFFFF;}
	.st35{fill:#D0D713;}
	.st36{fill:#CFD613;}
</style>
<path class="st0" d="M805.5,1486h-749c-19.1,0-34.5-15.4-34.5-34.5V65.7c0-19.1,15.4-34.5,34.5-34.5h749c19.1,0,34.5,15.4,34.5,34.5
	v1385.8C840,1470.6,824.6,1486,805.5,1486z"/>
<g>
	<path class="st1" d="M655,849.1c0,43.3-85.5,78.4-191.1,78.4c-105.5,0-191-35.1-191-78.4c0-43.3,85.5-78.4,191-78.4
		C569.5,770.7,655,805.8,655,849.1z"/>
	<g>
		<g>
			<g>
				<path class="st2" d="M566.2,593.2l-155.8,52.3v196.1c0,39.7,52.8,71.9,118,71.9c65.1,0,118-32.2,118-71.9V645.5L566.2,593.2z"/>
				<ellipse class="st3" cx="528.4" cy="645.5" rx="118" ry="71.9"/>
				<path class="st4" d="M428,683.2c20.8,20.5,58,34.2,100.4,34.2c42.5,0,79.6-13.7,100.4-34.2c1.4-4.2,2.2-8.5,2.2-12.9
					c0-34.5-45.9-62.5-102.6-62.5s-102.6,28-102.6,62.5C425.8,674.8,426.5,679.1,428,683.2z"/>
			</g>
			<path class="st5" d="M528.4,581.9c59.5,0,109.7,29.1,109.7,63.6s-50.2,63.6-109.7,63.6S418.7,680,418.7,645.5
				S468.9,581.9,528.4,581.9 M528.4,573.7c-65.1,0-118,32.2-118,71.9s52.8,71.9,118,71.9c65.1,0,118-32.2,118-71.9
				S593.6,573.7,528.4,573.7L528.4,573.7z"/>
		</g>
		<path class="st6" d="M628.7,314.5c-9.9,21-10,45.1-10,68.2c0.1,26.1,0.1,52.1,0.2,78.2c0.1,29.7,0.1,59.8-8,88.3s-25.5,55.8-52,69
			c-13.2,6.5-29.7,9.1-42.2,1.3c-5.5-3.5-9.7-8.7-13.2-14.1c-29.9-46.9-2.2-110,19.3-155.1C547.7,398.1,583.9,351.2,628.7,314.5z"/>
		<path class="st7" d="M404.7,528.7c-7.4-97.3-2.4-196.5-26.3-291.1c65,79.1,96.7,184.8,86,286.6c21.5-67.3,43.3-135.9,42.9-206.6
			c-0.2-33.8,20.6-113.5,20.6-113.5s12.2,76.3,23.5,113.3c7.7,25.3,9.2,52,10.7,78.4c2.2,38.5,4.4,77,6.6,115.5
			c32-96.8,117.8-230.2,117.8-230.2S655,535.5,638.2,593.7c-19,66-80.8,110.9-151.6,95.3C422.3,674.8,408.8,582.2,404.7,528.7z"/>
		<path class="st8" d="M455,624.7c-13.5-37-1-77.7,7.5-116.1c10-45.9,14-93.8,3.8-139.6c33.9,71.5,63.7,144.9,89.2,219.8
			c6.6,19.4,13,40.4,6.7,59.9c-6,18.3-39.2,50.7-61.2,45.3C483.7,689.7,460.9,640.9,455,624.7z"/>
	</g>
</g>
<path class="st1" d="M326,1181.8c-81.8,12.7-165.8-15.4-187.7-62.5c-21.9-47.2,26.6-95.8,108.4-108.4
	c81.8-12.7,165.8,15.4,187.7,62.5C456.3,1120.7,407.7,1169.2,326,1181.8z"/>
<ellipse class="st1" cx="551.2" cy="1200.4" rx="220.8" ry="127.5"/>
<path class="st9" d="M516.1,594.8c9.6,2.8,19.2,1.6,29.8,7.1c4.7,2.5,19,5.9,16.8,8.7c-1.9,2.3-18.4-2.8-22.1-1.5
	c-4.5,1.5,32.2,8.6,41.2,12.1s13.6,10.5,12.6,13.6c-1,3-16,7.6-25.6,6.6s-41.7-5.5-46.7-7.5s-23.7-16.4-23.7-16.4L516.1,594.8z"/>
<path class="st10" d="M302.7,1033.1c27,16.2,57.4,28.1,58.4,39.1c1.1,11-3.8,13.5-17.3,16.4c-13.4,2.9-41.5-10.2-44.9-13
	c-3.3-2.8-6.4-8.3-11.8-7.7c-5.4,0.5-8,0.5-17.2-2.9c-9.1-3.5-19-0.3-14.6-32.9C258.6,1007.9,302.7,1033.1,302.7,1033.1z"/>
<path class="st11" d="M321,675.4c-4.6,57.7-6.5,164.6-9.9,197.2c-2.8,26.5-4,32.6-4.9,68.4c-1.2,46,2.9,90.1,2.9,90.1
	s-26.4,16.7-57.6,3.9c0,0,1.5-280.4,0.1-287.2s-3.6-64.9-3.6-64.9L321,675.4z"/>
<path class="st10" d="M231.6,1081.9c15,18.5,38.3,42.7,39.9,54.9c1.6,12.2-5.4,14.7-18.3,17c-12.9,2.3-33.4-7.1-43.6-20.9
	c-10.2-13.8-10.9-12-12.4-19.3s-4.1-2.5-11.4-11.3c-7.3-8.8-6.8-8.2-5.2-19.7s3.8-17.9,3.8-17.9L231.6,1081.9z"/>
<path class="st12" d="M277.7,709c-6,23.9-5.9,287.2-6.1,330.8c-6.3-0.4-13.2-1.8-20.4-4.7c0,0-0.7-66.4,0-127.6s2.9-157.3,2.8-190.3
	L277.7,709z"/>
<path class="st11" d="M266.5,690.5c-1.8,18.8-4.6,61.6-6.3,78.3c-2.1,20.5-0.8,77.6-3.2,103c-2.1,22-12.6,53.4-14.8,89.2
	c-1.9,30.6-4.7,77.7-5.5,123c0,0-30.3,14.6-59.3-4.6c0,0,5-42.3,2.1-78.1s2.1-78.3,6.3-114.1s-7.4-86.4-12.4-129.1
	c-5-42.6-6-65.9-1.7-82.1C176,659.7,266.5,690.5,266.5,690.5z"/>
<path class="st12" d="M169.2,708.7c-1.7-21.8,7.2-10.5,8-10.2c2.6,1.3,15.2,12.6,15.2,12.6c4.6,39,12.2,150.8,11.8,177
	s-10.2,67.3-9.6,102.3c0.4,24.7,0.3,71.4,0.1,96.5c-5.7-1.5-11.5-3.9-17.2-7.7c0,0,5-42.3,2.1-78.1c-2.9-35.8,2.1-78.3,6.3-114.1
	c4.3-35.8-7.4-86.4-12.4-129.1C171.1,737.5,169.5,721.5,169.2,708.7z"/>
<path class="st13" d="M353.6,452.7c18,9.1,34.8,31.8,42.2,44.2c7.3,12.4,36.2,53.2,38.2,55.3c2,2,59.6,29,85.1,42.6
	c0,0-10.7,7.6-11.3,30.4c0,0-97.7-33.5-105.2-38.9c-7.3-5.4-52.3-62.9-52.3-62.9l-12.1-62.3L353.6,452.7z"/>
<path class="st13" d="M347.5,457.9c6.7,19.3,10.7,23.3,10.7,50.8c0,27.4,8.7,46.2,0,67.6s-26.1,21.4-28.1,37.5s0.9,83.7-3.5,92.4
	c-4.4,8.8-58.8,28.1-100.3,17.4s-57.6-28.1-62.9-39.5c-5.4-11.3-8-20.1,0-32.2c8-12.1,34.1-53.6,44.9-90.4
	C219,524.8,272,452.7,272,452.7L347.5,457.9z"/>
<path class="st14" d="M508.8,614.3c-26.7-10.1-97-36.6-99.2-36.7c-2.7-0.2-33.9-34.1-51.4-68.9l-8.7,11.4l0.6,3.3
	c0,0,44.9,57.6,52.3,62.9c7.3,5.4,105.2,38.9,105.2,38.9C507.7,621.1,508.2,617.4,508.8,614.3z"/>
<path class="st14" d="M358.2,508.7c0-23.9-3-30-8.3-44h-5.4c8.1,43.6,19.9,93.5-2.4,113.8c-25.4,23-40.6,30-42.9,140.6
	c0,0.3,0,0.4,0,0.7c14.8-4.4,25.5-9.9,27.3-13.6c4.4-8.8,1.5-76.3,3.5-92.4c2-16.1,19.4-16.1,28.1-37.5
	C366.9,554.9,358.2,536.1,358.2,508.7z"/>
<path class="st15" d="M289.4,336.8c-6.8-7.1-28.5-7.3-39.9,3.7c-18,17.4-15.8,48.2-18.7,76.7c-3.6,35.4-9.6,60.8-9.6,60.8l63.5-15.5
	l11.7-71.6L289.4,336.8z"/>
<path class="st15" d="M282.1,343c-7.5-3.3-26.2,8.7-30.3,33.3c-5.8,34.6-7.2,69.8-11.7,85.9c-4.4,16.1,46.1-8,46.1-8L282.1,343z"/>
<path class="st9" d="M284.2,434.7c-1.7,8.1-7.6,14.9-12.2,17.9c0,0,31.6,43.3,51.7,44.2c20.2,0.9,5.5-42.7,5.5-42.7L284.2,434.7z"/>
<path class="st16" d="M275.5,449.8c3.7-3.6,7.4-8.9,8.7-15.1l45,19.4c0,0,4.9,14.7,5.2,26.8l0,0
	C324.5,482.2,284.1,465.4,275.5,449.8z"/>
<path class="st17" d="M291.1,336.3c-2.4-3.6-7.1-4-12.6-0.7s-16.3,11.9-11.5,16.9L291.1,336.3z"/>
<path class="st15" d="M373.3,383.7c1.7-2.6,8.4-19.3-18.4-38.1c-26.8-18.8-53.6-15.4-76.3-4.4c-22.8,11.1-37.3,73.3,1.5,103
	c0,0,1.3-1.9,2.6-4.7c1.6-3.8,1.5-4.8,1.5-4.8l23.5-4.1L373.3,383.7z"/>
<path class="st18" d="M260.2,366.4L260.2,366.4c0,0-1.3,28.1,10.1,35.2c11.3,7.1,28.8,5,38.1-4.6c0,0-0.7,18-1.8,34l-22.2,3.8
	c0,0,0.1,1-1.5,4.8c-1.3,2.9-2.6,4.7-2.6,4.7C254.2,424.5,252,390.2,260.2,366.4z"/>
<path class="st14" d="M240.5,549.1c2.1,40.7,37.2,45.8,37.2,45.8s-15,6.3-29.8,2.6c-8.9-2.1-10.3,6.4-5.3,9.6
	c5,3.2,18.6,7.1,18.6,7.1s-23.9-1.9-28.8-2.4c-4.9-0.5,8.5,9.8,8.5,9.8l-17.7-2.2L240.5,549.1z"/>
<path class="st9" d="M288.6,704.7c7.4,1.8,14.7,2.9,20.1,5.3c5.5,2.4,10,4.8,14.3,7.1c7.5,3.8,15.5,6.3,13,8
	c-5.6,3.3-8.6-2.7-19.8,0c-11.3,2.7,39.7,16.1,39,21.4s-15.7,11.3-26.9,12.7c-11.3,1.3-42.1-12.7-49.8-22.1S268,708.9,268,708.9
	L288.6,704.7z"/>
<path class="st9" d="M370.7,377c6.3,12.6,6.7,31.1,4.6,37s-6.3,9.3-4.6,16.4c1.7,7.1-1.8,23.2-14.8,36.6
	c-13,13.5-17.5,14.2-30.1,7.5s-36.3-20.1-33.9-35.2c0,0-14.1-4.3-14.9-20.3s17.2-10.9,18.9,5v8c0,0,5-6.7,8.4-18s3.8-32.5,20.1-30.5
	c16.3,2.1,21.1,4.4,34.4,0.9C369.5,381.7,368.3,373.9,370.7,377z"/>
<path class="st13" d="M272,452.7c-19.2,8.5-13.2,3.9-42.6,16.8c-5.5,2.4-14,3.8-17.8,7.8c-13.3,14-16.5,36.5-17.5,58
	c-1.3,27.4-15,90.5-15.7,101.9s-2.9,25.9,38,56c34.5,25.5,59.1,40.5,59.1,40.5s-5.5-19.9,14.6-28.6c0,0-63.2-58.5-63.8-61.8
	c-0.7-3.3,21.5-100.6,21.5-100.6l46.7-63.9L272,452.7z"/>
<path class="st17" d="M294.6,478.8l-22.5-26.1c-19.2,8.5-22.3,5.2-45.3,13.1c-8.6,2.9-15.8,11.1-20.3,18
	c13.8-16.8,30.9-6.5,36.1,4.6c5.2,11.1,9.7,28.5,5.2,54.2l30.3-25.5L294.6,478.8z"/>
<path class="st13" d="M294.6,478.8l-22.5-26.1c-19.2,8.5-22.3,5.2-45.3,13.1c-8.6,2.9-15.8,11.1-20.3,18
	c13.8-16.8,30.9-6.5,36.1,4.6c5.2,11.1,9.7,28.5,5.2,54.2l30.3-25.5L294.6,478.8z"/>
<path class="st14" d="M216.4,693.2c34.5,25.5,59.1,40.5,59.1,40.5s-1.3-4.8-0.3-10.7c-40.3-23.4-96.5-73.9-96.9-85.9
	C177.8,648.5,175.5,663.1,216.4,693.2z"/>
<path class="st14" d="M244.6,492.6c2,20.8-26.9,144.6-26.9,144.6l8.6,6.1c-0.6-3.3,21.5-100.6,21.5-100.6l16.2-22.1l-2.8-42.5
	L244.6,492.6z"/>
<path class="st14" d="M272,452.7c-19.2,8.5-22.3,5.2-45.3,13.1c-8.6,2.9-15.8,11.1-20.3,18c5.8-7.1,12.2-9.4,18-8.8
	c3.5-3.9,39.7-10.2,52.1-17L272,452.7z"/>
<g>
	<ellipse class="st19" cx="460.9" cy="1027.2" rx="182.3" ry="182.3"/>
	
		<ellipse transform="matrix(0.7071 -0.7071 0.7071 0.7071 -584.7411 629.4987)" class="st20" cx="467.5" cy="1020.6" rx="170.3" ry="170.3"/>
	<circle class="st21" cx="486" cy="1002.1" r="142.8"/>
	<path class="st22" d="M595.5,965.7c-13.4,13.4-38.7,9.7-56.6-8.1c-17.9-17.9-21.4-43.2-8.1-56.6c13.3-13.4,38.7-9.7,56.6,8.1
		C605.2,927,608.9,952.3,595.5,965.7z"/>
</g>
<path class="st23" d="M508.2,1224.7c-2.1,14.6-4.4,19.2-4.4,26.6s8.4,17.7,16.4,25.5s18,21.4,27.6,28.9c9.6,7.4,27,11.2,36,1.9
	c9-9.3,4.6-24.2-2.5-32.9c-7.1-8.7-30.4-37.8-32.3-47.4C547.2,1217.6,508.2,1224.7,508.2,1224.7z"/>
<path class="st23" d="M645.8,1136c-1.3,12.4-6.2,17.1-5,25.5c1.3,8.4,3.8,14.3,12.4,17.1s22.6,1.9,26.6,3.4s9.8,13.4,33.7,21.2
	c23.9,7.8,37.8-13.3,26.2-21.7c-11.7-8.3-48.4-35.7-52.3-45.4C683.6,1126.4,645.8,1136,645.8,1136z"/>
<path class="st24" d="M382.9,891.1c-2.4,55.1,6,68.3,38.3,99.4c32.3,31.2,82,82.6,82,82.6s-8.2,65.5-3,100.3s3,54.9,3,54.9
	s28.9,15.5,50.4,0c0,0,2.2-111.9,5.2-136.4c2.9-24.5,7.4-29.7,0-42.3S495,936.9,495,936.9s90.5,46,145.4,63c0,0-1.5,43.1,0,63.8
	c1.5,20.7,4.5,57.1,0,76.4c0,0,39.3,11.9,53.4-0.7c0,0-0.7-90.7,2.2-120.3s2.2-52.4-7.4-59.8c-9.6-7.5-149.5-100.2-149.5-100.2
	L382.9,891.1z"/>
<path class="st25" d="M650.6,989.9c-58.6-13.1-160.5-68.5-160.5-68.5l4.9,15.5c0,0,90.4,46,145.4,63c0,0-1.5,43.1,0,63.8
	c1.5,20.7,4.5,57.1,0,76.4c0,0,6.8,2.1,15.7,3.6c0.5-8.1,0.7-21.6-1.2-41.8C651.4,1064.2,650.6,989.9,650.6,989.9z"/>
<path class="st25" d="M431.8,987.1c-41.7-37.5-46.5-67.6-45.9-90.9c0,0-1.2,0.4-3,1.1c-1.5,50,7.4,63.3,38.6,93.4
	c32.3,31.2,82,82.6,82,82.6s-8.2,65.5-3,100.3s3,54.9,3,54.9s4.8,2.6,12.1,4.6c-0.9-12.8-2.9-44.1-5.5-75.9
	c-3.1-41.2,8.5-90.9,8.5-90.9S473.5,1024.5,431.8,987.1z"/>
<path class="st26" d="M498.5,568.2c4.6-7.2,6.8-18.4-11.5-35s-37.6-23.2-55.8-21.8c-14.4,1.2-22.3,8.2-26.5,13.1
	c0,0-15.7,1.3-18.5,26.4c-0.5,4.7-5.3,114.5-2.1,122.2c5.5,13.8,28.7-14.9,34.6-20.6l1-18l3.8-16.4l-1.9-17.8l42.8-14.7l29.7-9.6
	L498.5,568.2z"/>
<path class="st27" d="M421.4,600.1l1.7,18.7l-3.6,15.6l-0.3,5c-7.5,8.8-21.8,23.5-21.5,24.3c1.2,4,1.5-73.4,1.5-73.4
	C404.8,600.3,421.4,600.1,421.4,600.1z"/>
<path class="st27" d="M496.6,578.5c-0.5,39.8,7.1,67.5,7.1,67.5l-48.2,9.6L496.6,578.5z"/>
<rect x="562.6" y="449.3" class="st16" width="27" height="21.3"/>
<path class="st9" d="M590.3,508.5c-0.5-3.8-1.1-6.4-1.8-7.5c-3.2-5.1-27.3-24.5-31.4-29.1c-4.2-4.6-3.2-12-1.9-20.3
	c1.4-8.3,5.1-8.8,9.7-10.2c4.6-1.4,25.8-2.9,29-1s10.3,13.9,9.8,15.3c-0.3,0.7-6.3,2.9-12.7,2.4c-6.4-0.4-13.2-3.5-17.9-9.8
	l-8.8,1.4l0.7,14.4c0,0,9.6-2.3,21-5.6c2.9-0.8,3.8,1.4,7.1,3.7c6.5,4.4,13.1,11.5,16.8,18c3.5,6.1,3.1,13.9,4.5,25.5
	C609.3,504.7,600.7,502.4,590.3,508.5z"/>
<path class="st24" d="M633.4,451.1c0-0.4,0-0.6-0.1-1c0-0.2,0-0.3,0-0.4c0-0.4-0.1-0.6-0.1-1c0-0.2,0-0.3-0.1-0.4
	c0-0.2-0.1-0.4-0.1-0.6c0-0.4-0.1-0.6-0.2-1c0-0.2-0.1-0.4-0.1-0.6c-0.1-0.3-0.1-0.6-0.2-0.9s-0.1-0.5-0.2-0.8
	c0-0.2-0.1-0.4-0.1-0.5c-0.1-0.3-0.2-0.6-0.3-0.9c-0.1-0.2-0.1-0.4-0.2-0.5c-0.1-0.4-0.2-0.7-0.3-1.1c0-0.1-0.1-0.2-0.1-0.3
	c-0.2-0.4-0.3-0.9-0.4-1.4c0-0.1,0-0.1-0.1-0.2c-0.1-0.4-0.3-0.8-0.4-1.2c-0.1-0.2-0.1-0.3-0.2-0.4c-0.1-0.4-0.3-0.6-0.4-1
	c-0.1-0.1-0.1-0.3-0.2-0.4c-0.2-0.4-0.4-0.9-0.5-1.3c0-0.1-0.1-0.1-0.1-0.2c-0.2-0.4-0.4-0.8-0.5-1.2c-0.1-0.1-0.1-0.2-0.2-0.4
	c-0.1-0.2-0.2-0.4-0.3-0.6c-0.3-0.4-0.4-1-0.7-1.4c-0.1-0.2-0.2-0.4-0.3-0.4c-0.4-0.6-0.6-1.2-1-1.8c-0.1-0.1-0.2-0.3-0.2-0.4
	c-0.3-0.5-0.6-1-0.9-1.5c-0.1-0.2-0.3-0.4-0.4-0.6c-0.1-0.1-0.2-0.3-0.3-0.4c-0.2-0.4-0.4-0.6-0.6-1c-0.1-0.1-0.1-0.2-0.2-0.3
	c-0.3-0.4-0.5-0.8-0.8-1.2l-0.1-0.1c-0.3-0.4-0.6-0.8-0.9-1.2c-0.2-0.2-0.3-0.4-0.4-0.5c-0.2-0.3-0.4-0.4-0.5-0.7
	c-0.2-0.2-0.3-0.4-0.4-0.5s-0.4-0.4-0.5-0.6c-0.4-0.4-0.8-0.9-1.2-1.3c0,0,0,0,0-0.1c-0.4-0.4-0.8-0.9-1.3-1.3
	c-0.3-0.3-0.5-0.5-0.8-0.8c-0.1-0.1-0.1-0.1-0.2-0.2c-0.4-0.4-0.7-0.6-1.1-1c-0.1-0.1-0.2-0.2-0.3-0.3c-0.3-0.3-0.5-0.4-0.8-0.7
	c-0.1-0.1-0.3-0.2-0.4-0.3c-0.3-0.2-0.4-0.4-0.7-0.5c-0.2-0.1-0.3-0.2-0.4-0.4c-0.3-0.2-0.4-0.4-0.7-0.5c-0.2-0.1-0.3-0.2-0.4-0.3
	c-0.3-0.2-0.5-0.4-0.7-0.5c-0.1-0.1-0.3-0.2-0.4-0.3c-0.4-0.3-0.8-0.4-1.2-0.7c-0.4-0.2-0.7-0.4-1.1-0.6c-0.1-0.1-0.2-0.1-0.3-0.2
	c-0.4-0.2-0.7-0.4-1-0.5h-0.1c-0.4-0.2-0.7-0.4-1.1-0.4c-0.1,0-0.2-0.1-0.2-0.1c-0.4-0.2-0.7-0.3-1.1-0.4h-0.1
	c-0.4-0.1-0.7-0.2-1-0.3h-0.1c-0.3-0.1-0.5-0.2-0.8-0.2c-0.1,0-0.2-0.1-0.4-0.1c-0.4-0.1-0.7-0.2-1.1-0.2c0,0,0,0-0.1,0
	c-0.4-0.1-0.6-0.1-1-0.1c-0.1,0-0.2,0-0.3,0c-0.3,0-0.4,0-0.7,0c-0.1,0-0.2,0-0.3,0c-0.3,0-0.5,0-0.7,0c-0.1,0-0.2,0-0.2,0
	c-0.3,0-0.6,0-0.9,0.1c-0.1,0-0.1,0-0.2,0c-0.3,0-0.4,0.1-0.7,0.1c-0.1,0-0.2,0-0.3,0.1c-0.3,0.1-0.5,0.1-0.8,0.2l0,0
	c-0.3,0.1-0.5,0.2-0.8,0.3c-0.1,0-0.1,0.1-0.2,0.1c-0.2,0.1-0.4,0.2-0.6,0.3c-0.1,0-0.1,0.1-0.2,0.1c-0.3,0.1-0.5,0.3-0.8,0.4
	l23-13.4l0.1-0.1c0.2-0.1,0.4-0.3,0.6-0.4c0.1,0,0.1-0.1,0.2-0.1c0.1-0.1,0.3-0.1,0.4-0.2c0.1,0,0.2-0.1,0.3-0.1s0.1-0.1,0.2-0.1
	c0.3-0.1,0.5-0.2,0.8-0.3l0,0h0.1c0.3-0.1,0.5-0.2,0.8-0.2c0.1,0,0.2,0,0.3-0.1c0.1,0,0.2,0,0.3-0.1c0.2,0,0.3,0,0.4-0.1
	c0.1,0,0.1,0,0.2,0c0.3,0,0.5-0.1,0.8-0.1h0.1c0.1,0,0.2,0,0.2,0c0.3,0,0.4,0,0.7,0c0.1,0,0.2,0,0.3,0s0.2,0,0.3,0
	c0.2,0,0.3,0,0.4,0c0.1,0,0.2,0,0.4,0c0.3,0,0.6,0.1,1,0.1c0,0,0,0,0.1,0l0,0c0.4,0.1,0.7,0.1,1.1,0.2c0.1,0,0.2,0.1,0.4,0.1
	c0.3,0.1,0.4,0.1,0.7,0.2h0.1h0.1c0.4,0.1,0.6,0.2,1,0.3h0.1c0.4,0.1,0.7,0.3,1.1,0.4c0.1,0,0.2,0.1,0.2,0.1c0.1,0,0.2,0.1,0.2,0.1
	c0.3,0.1,0.5,0.3,0.9,0.4c0.1,0,0.1,0.1,0.2,0.1c0.4,0.2,0.6,0.3,1,0.4c0.1,0.1,0.2,0.1,0.3,0.2c0.4,0.2,0.7,0.4,1.1,0.6
	c0.4,0.2,0.8,0.4,1.2,0.7c0.1,0.1,0.3,0.2,0.4,0.3c0.3,0.2,0.5,0.4,0.7,0.5s0.3,0.2,0.4,0.3c0.3,0.2,0.4,0.4,0.7,0.5
	c0.2,0.1,0.3,0.2,0.4,0.4c0.3,0.2,0.4,0.4,0.7,0.5c0.1,0.1,0.3,0.2,0.4,0.3c0.3,0.2,0.5,0.4,0.8,0.7c0.1,0.1,0.2,0.2,0.3,0.3
	c0.4,0.3,0.7,0.6,1.1,1c0.1,0.1,0.1,0.1,0.2,0.2c0.3,0.3,0.4,0.4,0.7,0.7l0.1,0.1c0.4,0.4,0.8,0.8,1.3,1.3c0,0,0,0,0,0.1
	c0.4,0.4,0.8,0.8,1.2,1.3l0.1,0.1c0.2,0.2,0.3,0.4,0.4,0.5c0.2,0.2,0.3,0.4,0.4,0.5c0.2,0.2,0.4,0.4,0.5,0.6
	c0.2,0.2,0.3,0.4,0.4,0.5l0.1,0.1c0.5,0.7,1.1,1.4,1.6,2.1c0,0,0,0.1,0.1,0.1c0.4,0.6,0.8,1.3,1.3,1.8c0,0.1,0.1,0.1,0.1,0.2
	c0.1,0.1,0.1,0.2,0.2,0.3c0.4,0.5,0.6,1.1,1,1.5c0,0.1,0.1,0.2,0.2,0.3c0,0,0,0.1,0.1,0.1c0.4,0.6,0.7,1.2,1,1.8
	c0,0.1,0.1,0.1,0.1,0.2c0.1,0.1,0.1,0.2,0.2,0.3c0.3,0.4,0.5,1,0.7,1.4c0.1,0.1,0.1,0.2,0.2,0.3c0.1,0.1,0.1,0.2,0.2,0.3
	c0.1,0.1,0.1,0.3,0.2,0.4c0.2,0.4,0.4,0.7,0.5,1.2c0,0.1,0.1,0.1,0.1,0.2c0,0,0,0.1,0.1,0.1c0.2,0.4,0.4,0.8,0.5,1.3
	c0,0.1,0.1,0.2,0.1,0.4c0.1,0.2,0.2,0.4,0.3,0.6s0.1,0.3,0.2,0.4c0.1,0.1,0.1,0.3,0.2,0.4c0.2,0.4,0.3,0.8,0.4,1.3v0.1v0.1
	c0.2,0.4,0.3,0.9,0.4,1.3c0,0.1,0.1,0.2,0.1,0.3c0.1,0.3,0.2,0.5,0.3,0.8c0,0.1,0,0.2,0.1,0.3c0.1,0.2,0.1,0.4,0.2,0.5
	c0.1,0.3,0.2,0.6,0.2,0.9c0.1,0.2,0.1,0.4,0.1,0.5c0,0.2,0.1,0.4,0.1,0.4s0,0.2,0.1,0.4c0.1,0.3,0.1,0.6,0.2,0.9
	c0,0.3,0.1,0.4,0.1,0.7c0.1,0.4,0.1,0.6,0.2,1c0,0.2,0.1,0.4,0.1,0.4s0,0.1,0,0.2c0,0.2,0,0.3,0.1,0.4c0,0.4,0.1,0.6,0.1,1
	c0,0.2,0,0.3,0,0.4c0,0.4,0,0.6,0.1,1c0,0.2,0,0.3,0,0.4c0,0.4,0,0.9,0,1.3c0,2.3-0.3,4.6-0.8,6.4c-0.2,0.8-0.4,1.5-0.7,2.1
	c-0.4,1.1-0.9,2-1.4,2.9c-1.1,1.7-2.5,3-4.1,4l-23,13.4c4.3-2.5,7-7.9,7-15.4c0-0.4,0-0.9,0-1.3
	C633.4,451.3,633.4,451.3,633.4,451.1z"/>
<g>
	<path class="st28" d="M609.6,411.3c-13.2-7.7-24-1.5-24.1,13.8c0,15.3,10.7,33.9,23.9,41.5c13.2,7.7,24,1.5,24.1-13.8
		C633.5,437.6,622.8,419,609.6,411.3z"/>
</g>
<path class="st29" d="M586.2,418.9c0,0.4,0,0.8,0,1.3c0,15.3,10.7,33.9,23.9,41.5c11.3,6.5,20.8,3,23.4-7.6
	c-0.6,14.3-11.2,19.9-24,12.5c-13.2-7.7-24-26.3-23.9-41.5C585.4,422.8,585.7,420.8,586.2,418.9z"/>
<path class="st30" d="M520.4,481.3l78.4-45.1l6.1-3.5c0.2-0.1,0.4-0.2,0.6-0.3l0,0h0.1l0,0c0.1,0,0.1,0,0.2,0l0,0c0,0,0,0,0.1,0
	s0.1,0,0.2,0h0.1c0,0,0,0,0.1,0h0.1h0.1c0.1,0,0.2,0,0.2,0l0,0l0,0c0.1,0,0.2,0,0.3,0.1h0.1c0.1,0,0.1,0,0.2,0l0,0l0,0
	c0.1,0,0.2,0,0.3,0.1l0,0c0.1,0,0.2,0.1,0.3,0.1c0,0,0,0,0.1,0c0,0,0,0,0.1,0s0.1,0.1,0.2,0.1l0,0c0.1,0,0.2,0.1,0.2,0.1s0,0,0.1,0
	s0.2,0.1,0.3,0.2s0.2,0.1,0.3,0.2c0,0,0.1,0,0.1,0.1c0.1,0,0.1,0.1,0.2,0.1l0.1,0.1c0.1,0,0.1,0.1,0.2,0.1l0.1,0.1
	c0.1,0,0.1,0.1,0.2,0.1c0,0,0.1,0,0.1,0.1c0.1,0.1,0.1,0.1,0.2,0.2c0,0,0.1,0,0.1,0.1c0.1,0.1,0.2,0.2,0.3,0.2l0,0
	c0.1,0.1,0.1,0.1,0.2,0.2l0,0c0.1,0.1,0.2,0.2,0.3,0.3l0,0c0.1,0.1,0.2,0.2,0.3,0.3l0,0c0,0.1,0.1,0.1,0.1,0.1l0.1,0.1
	c0,0.1,0.1,0.1,0.1,0.2l0.1,0.1l0,0c0.1,0.2,0.3,0.4,0.4,0.5l0,0c0.1,0.2,0.2,0.3,0.3,0.4l0,0c0,0,0,0,0,0.1
	c0.1,0.1,0.2,0.3,0.2,0.4c0,0,0,0,0,0.1l0,0c0.1,0.2,0.2,0.3,0.3,0.4l0,0v0.1c0.1,0.1,0.1,0.2,0.2,0.4v0.1v0.1v0.1
	c0,0.1,0.1,0.2,0.1,0.3l0,0l0,0c0,0.1,0.1,0.2,0.1,0.3v0.1c0,0.1,0,0.1,0.1,0.2v0.1v0.1c0,0.1,0.1,0.2,0.1,0.3l0,0l0,0
	c0,0.1,0.1,0.2,0.1,0.3v0.1c0,0.1,0,0.1,0.1,0.2c0,0,0,0,0,0.1v0.1c0,0.1,0,0.2,0.1,0.2c0,0.1,0,0.1,0,0.1v0.1v0.1
	c0,0.1,0,0.2,0,0.2c0,0.1,0,0.1,0,0.2s0,0.2,0,0.2v0.1c0,0,0,0,0,0.1v0.1c0,0.1,0,0.2,0,0.2v0.1c0,0.1,0,0.2,0,0.2v0.1
	c0,0.1,0,0.2,0,0.3c0,0.5-0.1,1.1-0.2,1.5c-0.1,0.2-0.1,0.4-0.2,0.5c-0.1,0.3-0.2,0.4-0.4,0.6c-0.1,0.2-0.2,0.3-0.4,0.4
	s-0.4,0.3-0.5,0.4l-6.2,3.5L527,494.2c-1.2,0.7-2.5,1-3.8,1c-2.7,0-5.3-1.3-6.6-3.8C515.5,488.1,516.7,483.4,520.4,481.3z"/>
<path class="st25" d="M517.6,486.5c1.4,2.5,4,3.8,6.6,3.8c1.3,0,2.6-0.4,3.8-1l78.4-45.1l6.2-3.5c0.2-0.1,0.4-0.2,0.5-0.4
	c0.1-0.1,0.3-0.3,0.4-0.4c0.1-0.1,0.1-0.3,0.2-0.4c0,0.1,0,0.1,0.1,0.2v0.1c0,0.1,0,0.1,0.1,0.2c0,0,0,0,0,0.1v0.1
	c0,0.1,0,0.2,0.1,0.2c0,0.1,0,0.1,0,0.1v0.1v0.1c0,0.1,0,0.2,0,0.2c0,0.1,0,0.1,0,0.2s0,0.2,0,0.2v0.1c0,0,0,0,0,0.1v0.1
	c0,0.1,0,0.2,0,0.2v0.1c0,0.1,0,0.2,0,0.2v0.1c0,0.1,0,0.2,0,0.3c0,0.5-0.1,1.1-0.2,1.5c-0.1,0.2-0.1,0.4-0.2,0.5
	c-0.1,0.3-0.2,0.4-0.4,0.6c-0.1,0.2-0.2,0.3-0.4,0.4s-0.4,0.3-0.5,0.4l-6.2,3.5l-78.4,45.1c-1.2,0.7-2.5,1-3.8,1
	c-2.7,0-5.3-1.3-6.6-3.8c-1.2-2.1-1.3-4.4-0.5-6.4C517.2,485.7,517.4,486.2,517.6,486.5z"/>
<path class="st24" d="M543.8,502.7c0-0.4,0-0.6-0.1-1c0-0.2,0-0.3,0-0.4c0-0.4-0.1-0.6-0.1-1c0-0.2,0-0.3-0.1-0.4
	c0-0.2-0.1-0.4-0.1-0.6c-0.1-0.4-0.1-0.6-0.2-1c0-0.2-0.1-0.4-0.1-0.6c-0.1-0.3-0.1-0.6-0.2-0.9c-0.1-0.3-0.1-0.5-0.2-0.8
	c0-0.2-0.1-0.4-0.1-0.5c-0.1-0.3-0.2-0.6-0.3-0.9c-0.1-0.2-0.1-0.4-0.2-0.5c-0.1-0.4-0.2-0.7-0.3-1.1c0-0.1-0.1-0.2-0.1-0.3
	c-0.2-0.4-0.3-0.9-0.4-1.4c0-0.1,0-0.1-0.1-0.2c-0.1-0.4-0.3-0.8-0.4-1.2c-0.1-0.2-0.1-0.3-0.2-0.4c-0.1-0.4-0.3-0.6-0.4-1
	c-0.1-0.1-0.1-0.3-0.2-0.4c-0.2-0.4-0.4-0.9-0.5-1.3c0-0.1-0.1-0.1-0.1-0.2c-0.2-0.4-0.4-0.8-0.5-1.2c-0.1-0.1-0.1-0.2-0.2-0.4
	c-0.1-0.2-0.2-0.4-0.3-0.6c-0.3-0.4-0.4-1-0.7-1.4c-0.1-0.2-0.2-0.4-0.3-0.4c-0.4-0.6-0.6-1.2-1-1.8c-0.1-0.1-0.2-0.3-0.2-0.4
	c-0.3-0.5-0.6-1-0.9-1.5c-0.1-0.2-0.3-0.4-0.4-0.6c-0.1-0.1-0.2-0.3-0.3-0.4c-0.2-0.4-0.4-0.6-0.6-1c-0.1-0.1-0.1-0.2-0.2-0.3
	c-0.3-0.4-0.5-0.8-0.8-1.2l-0.1-0.1c-0.3-0.4-0.6-0.8-0.9-1.2c-0.2-0.2-0.3-0.4-0.4-0.5c-0.2-0.3-0.4-0.4-0.5-0.7
	c-0.2-0.2-0.3-0.4-0.4-0.5c-0.2-0.2-0.4-0.4-0.5-0.6c-0.4-0.4-0.8-0.9-1.2-1.3c0,0,0,0,0-0.1c-0.4-0.4-0.8-0.9-1.3-1.3
	c-0.3-0.3-0.5-0.5-0.8-0.8c-0.1-0.1-0.1-0.1-0.2-0.2c-0.4-0.4-0.7-0.6-1.1-1c-0.1-0.1-0.2-0.2-0.3-0.3c-0.3-0.3-0.5-0.4-0.8-0.7
	c-0.1-0.1-0.3-0.2-0.4-0.3c-0.3-0.2-0.4-0.4-0.7-0.5c-0.2-0.1-0.3-0.2-0.4-0.4c-0.3-0.2-0.4-0.4-0.7-0.5c-0.2-0.1-0.3-0.2-0.4-0.3
	c-0.3-0.2-0.5-0.4-0.7-0.5c-0.1-0.1-0.3-0.2-0.4-0.3c-0.4-0.3-0.8-0.4-1.2-0.7c-0.4-0.2-0.7-0.4-1.1-0.6c-0.1-0.1-0.2-0.1-0.3-0.2
	c-0.4-0.2-0.7-0.4-1-0.5h-0.1c-0.4-0.2-0.7-0.4-1.1-0.4c-0.1,0-0.2-0.1-0.3-0.1c-0.4-0.2-0.7-0.3-1.1-0.4h0.4
	c-0.4-0.1-0.7-0.2-1-0.3l0,0c-0.3-0.1-0.5-0.2-0.8-0.2c-0.1,0-0.2-0.1-0.4-0.1c-0.4-0.1-0.7-0.2-1.1-0.2c0,0,0,0-0.1,0
	c-0.4-0.1-0.6-0.1-1-0.1c-0.1,0-0.2,0-0.3,0c-0.3,0-0.4,0-0.7,0c-0.1,0-0.2,0-0.3,0c-0.3,0-0.5,0-0.7,0c-0.1,0-0.2,0-0.2,0
	c-0.3,0-0.6,0-0.9,0.1c-0.1,0-0.1,0-0.2,0c-0.3,0-0.4,0.1-0.7,0.1c-0.1,0-0.2,0-0.3,0.1c-0.3,0.1-0.5,0.1-0.8,0.2l0,0
	c-0.3,0.1-0.5,0.2-0.8,0.3c-0.1,0-0.1,0.1-0.2,0.1c-0.2,0.1-0.4,0.2-0.6,0.3c-0.1,0-0.1,0.1-0.2,0.1c-0.3,0.1-0.5,0.3-0.8,0.4
	l23-13.4l0.1-0.1c0.2-0.1,0.4-0.3,0.6-0.4c0.1,0,0.1-0.1,0.2-0.1c0.1-0.1,0.3-0.1,0.4-0.2c0.1,0,0.2-0.1,0.3-0.1s0.1-0.1,0.2-0.1
	c0.3-0.1,0.5-0.2,0.8-0.3l0,0h0.1c0.3-0.1,0.5-0.2,0.8-0.2c0.1,0,0.2,0,0.3-0.1c0.1,0,0.2,0,0.3-0.1c0.2,0,0.3,0,0.4-0.1
	c0.1,0,0.1,0,0.2,0c0.3,0,0.5-0.1,0.8-0.1h0.1c0.1,0,0.2,0,0.2,0c0.3,0,0.4,0,0.7,0c0.1,0,0.2,0,0.3,0s0.2,0,0.3,0
	c0.2,0,0.3,0,0.4,0c0.1,0,0.2,0,0.4,0c0.3,0,0.6,0.1,1,0.1c0,0,0,0,0.1,0l0,0c0.4,0.1,0.7,0.1,1.1,0.2c0.1,0,0.2,0.1,0.4,0.1
	c0.3,0.1,0.4,0.1,0.7,0.2h0.1h0.1c0.4,0.1,0.6,0.2,1,0.3h0.1c0.4,0.1,0.7,0.3,1.1,0.4c0.1,0,0.2,0.1,0.2,0.1c0.1,0,0.2,0.1,0.2,0.1
	c0.3,0.1,0.5,0.3,0.9,0.4c0.1,0,0.1,0.1,0.2,0.1c0.4,0.2,0.6,0.3,1,0.4c0.1,0.1,0.2,0.1,0.3,0.2c0.4,0.2,0.7,0.4,1.1,0.6
	c0.4,0.2,0.8,0.4,1.2,0.7c0.1,0.1,0.3,0.2,0.4,0.3c0.3,0.2,0.5,0.4,0.7,0.5s0.3,0.2,0.4,0.3c0.3,0.2,0.4,0.4,0.7,0.5
	c0.2,0.1,0.3,0.2,0.4,0.4c0.3,0.2,0.4,0.4,0.7,0.5c0.1,0.1,0.3,0.2,0.4,0.3c0.3,0.2,0.5,0.4,0.8,0.7c0.1,0.1,0.2,0.2,0.3,0.3
	c0.4,0.3,0.7,0.6,1.1,1c0.1,0.1,0.1,0.1,0.2,0.2c0.3,0.3,0.4,0.4,0.7,0.7l0.1,0.1c0.4,0.4,0.8,0.8,1.3,1.3c0,0,0,0,0,0.1
	c0.4,0.4,0.8,0.8,1.2,1.3l0.1,0.1c0.2,0.2,0.3,0.4,0.4,0.5c0.2,0.2,0.3,0.4,0.4,0.5c0.2,0.2,0.4,0.4,0.5,0.6
	c0.2,0.2,0.3,0.4,0.4,0.5l0.1,0.1c0.5,0.7,1.1,1.4,1.6,2.1c0,0,0,0.1,0.1,0.1c0.4,0.6,0.8,1.3,1.3,1.8c0,0.1,0.1,0.1,0.1,0.2
	c0.1,0.1,0.1,0.2,0.2,0.3c0.4,0.5,0.6,1.1,1,1.5c0,0.1,0.1,0.2,0.2,0.3c0,0,0,0.1,0.1,0.1c0.4,0.6,0.7,1.2,1,1.8
	c0,0.1,0.1,0.1,0.1,0.2c0.1,0.1,0.1,0.2,0.2,0.3c0.3,0.4,0.5,1,0.7,1.4c0.1,0.1,0.1,0.2,0.2,0.3c0.1,0.1,0.1,0.2,0.2,0.3
	c0.1,0.1,0.1,0.3,0.2,0.4c0.2,0.4,0.4,0.7,0.5,1.2c0,0.1,0.1,0.1,0.1,0.2c0,0,0,0.1,0.1,0.1c0.2,0.4,0.4,0.8,0.5,1.3
	c0,0.1,0.1,0.2,0.1,0.4c0.1,0.2,0.2,0.4,0.3,0.6s0.1,0.3,0.2,0.4c0.1,0.1,0.1,0.3,0.2,0.4c0.2,0.4,0.3,0.8,0.4,1.3v0.1v0.1
	c0.2,0.4,0.3,0.9,0.4,1.3c0,0.1,0.1,0.2,0.1,0.3c0.1,0.3,0.2,0.5,0.3,0.8c0,0.1,0,0.2,0.1,0.3c0.1,0.2,0.1,0.4,0.2,0.5
	c0.1,0.3,0.2,0.6,0.2,0.9c0.1,0.2,0.1,0.4,0.1,0.5c0,0.2,0.1,0.4,0.1,0.4s0,0.2,0.1,0.4c0.1,0.3,0.1,0.6,0.2,0.9
	c0,0.3,0.1,0.4,0.1,0.7c0.1,0.4,0.1,0.6,0.2,1c0,0.2,0.1,0.4,0.1,0.4s0,0.1,0,0.2c0,0.2,0,0.3,0.1,0.4c0,0.4,0.1,0.6,0.1,1
	c0,0.2,0,0.3,0,0.4c0,0.4,0,0.6,0.1,1c0,0.2,0,0.3,0,0.4c0,0.4,0,0.9,0,1.3c0,2.3-0.3,4.6-0.8,6.4c-0.2,0.8-0.4,1.5-0.7,2.1
	c-0.4,1.1-0.9,2-1.4,2.9c-1.1,1.7-2.5,3-4.1,4l-23,13.4c4.3-2.5,7-7.9,7-15.4c0-0.4,0-0.9,0-1.3C543.8,503,543.8,502.8,543.8,502.7z
	"/>
<g>
	<path class="st28" d="M519.9,463c-13.2-7.7-24-1.5-24.1,13.8c0,15.3,10.7,33.9,23.9,41.5c13.2,7.7,24,1.5,24.1-13.8
		C543.9,489.2,533.2,470.6,519.9,463z"/>
</g>
<path class="st31" d="M496.5,470.6c0,0.4,0,0.8,0,1.3c0,15.3,10.7,33.9,23.9,41.5c11.3,6.5,20.8,3,23.4-7.6
	c-0.6,14.3-11.2,19.9-24,12.5c-13.2-7.7-24-26.3-23.9-41.5C495.8,474.4,496,472.3,496.5,470.6z"/>
<path class="st9" d="M613.6,498c3.6,26.4,6.6,61.9,6.7,78.4c0.1,16.5,1.4,24.7-8.8,35.6c-7.8,8.3-53.4,33.6-80,51.5
	c-8.1,5.5-16.4,12.7-16.4,25.5c0,12.6-33.1-56.7-33.1-56.7s11.8-9.4,37.5-18c25.6-8.7,63.4-29.2,63.4-29.2s0.9-25.1,5.5-51.8
	c4.6-26.2-0.1-32.2-3.1-35.6C579.6,490.8,613.6,498,613.6,498z"/>
<rect x="249.2" y="622.1" transform="matrix(0.984 -0.1779 0.1779 0.984 -107.8872 55.6799)" class="st16" width="14.7" height="14.7"/>
<path class="st29" d="M282,586.3c0,0.4,0,0.8,0,1.3c0,15.3,10.7,33.9,23.9,41.5c11.3,6.5,20.8,3,23.4-7.6
	c-0.6,14.3-11.2,19.9-24,12.5c-13.2-7.7-24-26.3-23.9-41.5C281.3,590.3,281.6,588.2,282,586.3z"/>
<path class="st25" d="M213.5,654c1.4,2.5,4,3.8,6.6,3.8c1.3,0,2.6-0.4,3.8-1l78.4-45.1l6.2-3.5c0.2-0.1,0.4-0.2,0.5-0.4
	c0.1-0.1,0.3-0.3,0.4-0.4c0.1-0.1,0.1-0.3,0.2-0.4c0,0.1,0,0.1,0.1,0.2v0.1c0,0.1,0,0.1,0.1,0.2c0,0,0,0,0,0.1v0.1
	c0,0.1,0,0.2,0.1,0.2c0,0.1,0,0.1,0,0.1v0.1v0.1c0,0.1,0,0.2,0,0.2c0,0.1,0,0.1,0,0.2s0,0.2,0,0.2v0.1c0,0,0,0,0,0.1v0.1
	c0,0.1,0,0.2,0,0.2v0.1c0,0.1,0,0.2,0,0.2v0.1c0,0.1,0,0.2,0,0.3c0,0.5-0.1,1.1-0.2,1.5c-0.1,0.2-0.1,0.4-0.2,0.5
	c-0.1,0.3-0.2,0.4-0.4,0.6c-0.1,0.2-0.2,0.3-0.4,0.4c-0.2,0.1-0.4,0.3-0.5,0.4l-6.2,3.5L223.6,662c-1.2,0.7-2.5,1-3.8,1
	c-2.7,0-5.3-1.3-6.6-3.8c-1.2-2.1-1.3-4.4-0.5-6.4C213.1,653.2,213.2,653.6,213.5,654z"/>
<path class="st24" d="M239.7,670.2c0-0.4,0-0.6-0.1-1c0-0.2,0-0.3,0-0.4c0-0.4-0.1-0.6-0.1-1c0-0.2,0-0.3-0.1-0.4
	c0-0.2-0.1-0.4-0.1-0.6c0-0.4-0.1-0.6-0.2-1c0-0.2-0.1-0.4-0.1-0.6c-0.1-0.3-0.1-0.6-0.2-0.9c-0.1-0.3-0.1-0.5-0.2-0.8
	c0-0.2-0.1-0.4-0.1-0.5c-0.1-0.3-0.2-0.6-0.3-0.9c-0.1-0.2-0.1-0.4-0.2-0.5c-0.1-0.4-0.2-0.7-0.3-1.1c0-0.1-0.1-0.2-0.1-0.3
	c-0.2-0.4-0.3-0.9-0.4-1.4c0-0.1,0-0.1-0.1-0.2c-0.1-0.4-0.3-0.8-0.4-1.2c-0.1-0.2-0.1-0.3-0.2-0.4c-0.1-0.4-0.3-0.6-0.4-1
	c-0.1-0.1-0.1-0.3-0.2-0.4c-0.2-0.4-0.4-0.9-0.5-1.3c0-0.1-0.1-0.1-0.1-0.2c-0.2-0.4-0.4-0.8-0.5-1.2c-0.1-0.1-0.1-0.2-0.2-0.4
	c-0.1-0.2-0.2-0.4-0.3-0.6c-0.3-0.4-0.4-1-0.7-1.4c-0.1-0.2-0.2-0.4-0.3-0.4c-0.4-0.6-0.6-1.2-1-1.8c-0.1-0.1-0.2-0.3-0.2-0.4
	c-0.3-0.5-0.6-1-0.9-1.5c-0.1-0.2-0.3-0.4-0.4-0.6c-0.1-0.1-0.2-0.3-0.3-0.4c-0.2-0.4-0.4-0.6-0.6-1c-0.1-0.1-0.1-0.2-0.2-0.3
	c-0.3-0.4-0.5-0.8-0.8-1.2l-0.1-0.1c-0.3-0.4-0.6-0.8-0.9-1.2c-0.2-0.2-0.3-0.4-0.4-0.5c-0.2-0.3-0.4-0.4-0.5-0.7
	c-0.2-0.2-0.3-0.4-0.4-0.5c-0.2-0.2-0.4-0.4-0.5-0.6c-0.4-0.4-0.8-0.9-1.2-1.3c0,0,0,0,0-0.1c-0.4-0.4-0.8-0.9-1.3-1.3
	c-0.3-0.3-0.5-0.5-0.8-0.8c-0.1-0.1-0.1-0.1-0.2-0.2c-0.4-0.4-0.7-0.6-1.1-1c-0.1-0.1-0.2-0.2-0.3-0.3c-0.3-0.3-0.5-0.4-0.8-0.7
	c-0.1-0.1-0.3-0.2-0.4-0.3c-0.3-0.2-0.4-0.4-0.7-0.5c-0.2-0.1-0.3-0.2-0.4-0.4c-0.3-0.2-0.4-0.4-0.7-0.5c-0.2-0.1-0.3-0.2-0.4-0.3
	c-0.3-0.2-0.5-0.4-0.7-0.5c-0.1-0.1-0.3-0.2-0.4-0.3c-0.4-0.3-0.8-0.4-1.2-0.7c-0.4-0.2-0.7-0.4-1.1-0.6c-0.1-0.1-0.2-0.1-0.3-0.2
	c-0.4-0.2-0.7-0.4-1-0.5H213c-0.4-0.2-0.7-0.4-1.1-0.4c-0.1,0-0.2-0.1-0.3-0.1c-0.4-0.2-0.7-0.3-1.1-0.4h-0.1
	c-0.4-0.1-0.6-0.2-1-0.3h-0.1c-0.3-0.1-0.5-0.2-0.8-0.2c-0.1,0-0.2-0.1-0.4-0.1c-0.4-0.1-0.7-0.2-1.1-0.2c0,0,0,0-0.1,0
	c-0.4-0.1-0.6-0.1-1-0.1c-0.1,0-0.2,0-0.3,0c-0.3,0-0.4,0-0.7,0c-0.1,0-0.2,0-0.3,0c-0.3,0-0.5,0-0.7,0c-0.1,0-0.2,0-0.2,0
	c-0.3,0-0.6,0-0.9,0.1c-0.1,0-0.1,0-0.2,0c-0.3,0-0.4,0.1-0.7,0.1c-0.1,0-0.2,0-0.3,0.1c-0.3,0.1-0.5,0.1-0.8,0.2l0,0
	c-0.3,0.1-0.5,0.2-0.8,0.3c-0.1,0-0.1,0.1-0.2,0.1c-0.2,0.1-0.4,0.2-0.6,0.3c-0.1,0-0.1,0.1-0.2,0.1c-0.3,0.1-0.5,0.3-0.8,0.4
	l23-13.4l0.1-0.1c0.2-0.1,0.4-0.3,0.6-0.4c0.1,0,0.1-0.1,0.2-0.1c0.1-0.1,0.3-0.1,0.4-0.2c0.1,0,0.2-0.1,0.3-0.1s0.1-0.1,0.2-0.1
	c0.3-0.1,0.5-0.2,0.8-0.3l0,0h0.1c0.3-0.1,0.5-0.2,0.8-0.2c0.1,0,0.2,0,0.3-0.1c0.1,0,0.2,0,0.3-0.1c0.2,0,0.3,0,0.4-0.1
	c0.1,0,0.1,0,0.2,0c0.3,0,0.5-0.1,0.8-0.1h0.1c0.1,0,0.2,0,0.2,0c0.3,0,0.4,0,0.7,0c0.1,0,0.2,0,0.3,0s0.2,0,0.3,0
	c0.2,0,0.3,0,0.4,0c0.1,0,0.2,0,0.4,0c0.4,0,0.6,0.1,1,0.1c0,0,0,0,0.1,0l0,0c0.4,0.1,0.7,0.1,1.1,0.2c0.1,0,0.2,0.1,0.4,0.1
	c0.3,0.1,0.4,0.1,0.7,0.2h0.1h0.1c0.4,0.1,0.6,0.2,1,0.3h0.1c0.4,0.1,0.7,0.3,1.1,0.4c0.1,0,0.2,0.1,0.2,0.1c0.1,0,0.2,0.1,0.2,0.1
	c0.3,0.1,0.5,0.3,0.9,0.4c0.1,0,0.1,0.1,0.2,0.1c0.4,0.2,0.6,0.3,1,0.4c0.1,0.1,0.2,0.1,0.3,0.2c0.4,0.2,0.7,0.4,1.1,0.6
	c0.4,0.2,0.8,0.4,1.2,0.7c0.1,0.1,0.3,0.2,0.4,0.3c0.3,0.2,0.5,0.4,0.7,0.5s0.3,0.2,0.4,0.3c0.3,0.2,0.4,0.4,0.7,0.5
	c0.2,0.1,0.3,0.2,0.4,0.4c0.3,0.2,0.4,0.4,0.7,0.5c0.1,0.1,0.3,0.2,0.4,0.3c0.3,0.2,0.5,0.4,0.8,0.7c0.1,0.1,0.2,0.2,0.3,0.3
	c0.4,0.4,0.7,0.6,1.1,1c0.1,0.1,0.1,0.1,0.2,0.2c0.3,0.3,0.4,0.4,0.7,0.7l0.1,0.1c0.4,0.4,0.8,0.8,1.3,1.3c0,0,0,0,0,0.1
	c0.4,0.4,0.8,0.8,1.2,1.3l0.1,0.1c0.2,0.2,0.3,0.4,0.4,0.5c0.2,0.2,0.3,0.4,0.4,0.5c0.2,0.2,0.4,0.4,0.5,0.6s0.3,0.4,0.4,0.5
	l0.1,0.1c0.5,0.7,1.1,1.4,1.6,2.1c0,0,0,0.1,0.1,0.1c0.4,0.6,0.8,1.3,1.3,1.8c0,0.1,0.1,0.1,0.1,0.2c0.1,0.1,0.1,0.2,0.2,0.3
	c0.4,0.5,0.6,1.1,1,1.5c0,0.1,0.1,0.2,0.2,0.3c0,0,0,0.1,0.1,0.1c0.4,0.6,0.7,1.2,1,1.8c0,0.1,0.1,0.1,0.1,0.2
	c0.1,0.1,0.1,0.2,0.2,0.3c0.3,0.4,0.5,1,0.7,1.4c0.1,0.1,0.1,0.2,0.2,0.3s0.1,0.2,0.2,0.3s0.1,0.3,0.2,0.4c0.2,0.4,0.4,0.7,0.5,1.2
	c0,0.1,0.1,0.1,0.1,0.2c0,0,0,0.1,0.1,0.1c0.2,0.4,0.4,0.8,0.5,1.3c0,0.1,0.1,0.2,0.1,0.4c0.1,0.2,0.2,0.4,0.3,0.6s0.1,0.3,0.2,0.4
	c0.1,0.1,0.1,0.3,0.2,0.4c0.2,0.4,0.3,0.8,0.4,1.3v0.1v0.1c0.2,0.4,0.3,0.9,0.4,1.3c0,0.1,0.1,0.2,0.1,0.3c0.1,0.3,0.2,0.5,0.3,0.8
	c0,0.1,0,0.2,0.1,0.3c0.1,0.2,0.1,0.4,0.2,0.5c0.1,0.3,0.2,0.6,0.2,0.9c0.1,0.2,0.1,0.4,0.1,0.5c0,0.2,0.1,0.4,0.1,0.4
	c0,0.1,0,0.2,0.1,0.4c0.1,0.3,0.1,0.6,0.2,0.9c0,0.3,0.1,0.4,0.1,0.7c0.1,0.4,0.1,0.6,0.2,1c0,0.2,0.1,0.3,0.1,0.4
	c0,0.1,0,0.1,0,0.2c0,0.2,0,0.3,0.1,0.4c0,0.4,0.1,0.6,0.1,1c0,0.2,0,0.3,0,0.4c0,0.4,0,0.6,0.1,1c0,0.2,0,0.3,0,0.4
	c0,0.4,0,0.9,0,1.3c0,2.3-0.3,4.6-0.8,6.4c-0.2,0.8-0.4,1.5-0.7,2.1c-0.4,1.1-0.9,2-1.4,2.9c-1.1,1.7-2.5,3-4.1,4l-23,13.4
	c4.3-2.5,7-7.9,7-15.4c0-0.4,0-0.9,0-1.3C239.7,670.4,239.7,670.2,239.7,670.2z"/>
<g>
	<path class="st28" d="M215.7,630.4c-13.2-7.7-24-1.5-24.1,13.8c0,15.3,10.7,33.9,23.9,41.5c13.2,7.7,24,1.5,24.1-13.8
		C239.8,656.7,229,638.1,215.7,630.4z"/>
</g>
<path class="st29" d="M192.3,638c0,0.4,0,0.8,0,1.3c0,15.3,10.7,33.9,23.9,41.5c11.3,6.5,20.8,3,23.4-7.6
	c-0.6,14.3-11.2,19.9-24,12.5c-13.2-7.7-24-26.3-23.9-41.5C191.7,641.9,191.9,639.9,192.3,638z"/>
<path class="st9" d="M305.5,648.1c-3.3-6.1-6.7-15.2-6.4-22.6c0.2-7.4,1.4-9-2.8-13.6c-4.2-4.6-8-6.5-11-6.8
	c-2.9-0.3-11.1,3.8-8.9,6.3c2.1,2.5,7.5-0.1,7.5-0.1l6.3,5.5c0,0-3.2,5.6-5.9,8.2c-2.9,2.9-6,7.5-8.8,10.5c-7.5,8.4,2.8,11.3,5,12.4
	C282.7,649,305.5,648.1,305.5,648.1z"/>
<path class="st9" d="M271.3,715.8c12.5-6.7,13.4-11.7,24.1-21c0.4,16,5.3,33.1,5.3,33.1c11.3-9.2,49.2-57.7,63.9-69.7
	c14.7-12,29.3-8.1,45-14.1l5.5,97.7c0,0-13.3,24.7-20.3,15.4c-7.1-9.2-20-32.8-22.2-32.3c-2.1,0.5-75.1,57.9-87.6,61.2
	c-14.4,3.8-20.5-11.6-20.5-21.4c0-4.9,2.6-30.6,5.4-42C270.1,720.8,270.7,718.4,271.3,715.8z"/>
<path class="st9" d="M275.5,614.2c2.6,2.1,8,7.3,8.1,8.8s-5.3,4.8-8.9,6.3c-3.7,1.3-10.4,2.1-12,1.5c-3.5-1-10.5-5.5-10.5-5.5
	s-0.4-4.2-0.1-4.3C252.5,620.9,275.5,614.2,275.5,614.2z"/>
<path class="st11" d="M472.8,636c9.3-3.8,14.7-7.6,14.7-7.6s6.7,14.1,14.2,27s17,26.2,21.1,33.7c11.7,20.9,15.2,44.1,4.4,62.9
	c-10.3,17.9-8.8,37.2-6.9,46.5c2,9.4,25.2,57.6,25.6,60.6c0.3,1.3-24.2,34.7-56.2,44.1c-35.7,10.5-90.2,12.2-110.3-6.1
	c0,0,0.4-40.7,8.8-63.4c8.4-22.6,10.8-54.6-3.5-91c0,0,9.4-12.9,8.1-44.2c-0.7-18.5-3.9-31.9-5.8-40.1c-1.4-6.2-2.7-9.1-1.6-9.3
	c5.5-1,12.9-2.6,16.4-3.6c11-3,13.8-6.5,17.8-14.1C426.9,617.7,472.8,636,472.8,636z"/>
<path class="st9" d="M431.1,697.2c-21.4-25.6-24.5-38.2-29.1-51.6c0,0,8.8-3.6,9.8-4.3c1.3-0.9,4-3.6,4-3.6c1.9-2.6,2.9-4.1,3.9-6.2
	c4.9-9.3,33.1-9.3,48.6-5.6c4.6,3.4,7.4,10.9,11.3,18.3c6.2,11.8,10.8,28.8,11.7,42.4c1,14.3-0.7,30.4-8,37
	c-5.4,4.9-17.4,3.8-27.4-2.9C445.2,713.3,439.5,707.3,431.1,697.2z"/>
<path class="st16" d="M420.8,610.8h9.8l32.3,31.1l14.7-1.8c4,13.3-12.1,14.3-18.3,14.3c-5,0-17-2.1-33.1-11.5
	c-3.9-2.3-7.6-4.7-9.2-7.1c0,0,2.7-4.3,4.2-14C421.8,618.4,420.8,610.8,420.8,610.8z"/>
<path class="st9" d="M498.5,568.2c0,0.4,0.1,0.6,0.1,1c1.4,11.2,0.6,20.5-1.6,23.9c-2.5,3.8-4.1,6.6-5.2,8.9s-1.3,8.1-3.2,12.2
	c0,0,2.9,7.4,0.4,9.9c-2.4,2.5-4.6,0.6-5.4,2.7s0.2,4-1.7,5.4c-1.9,1.3,0.3,3.8-1.7,5.4c-2,1.7-3.6,2.5-3.9,5.7
	c-0.4,3.2-4.1,6.6-14,3.8c-10-2.9-27.1-10.3-35.6-19.8c-8.5-9.6-6.7-16.4-6.7-16.4s-6.6,3.2-9.8-0.2c-3.2-3.3-3.3-6.3-6.9-10.5
	c-3.7-4.1-5-15.5,1.3-18.6s11.3,3.3,15.1,6.6c2.3,2,13.8-13.2,18.8-26.7c1.1-2.9,2.5,1.7,17.9,5.5c12.2,3,25.8,4,34.1,3.4
	C497.4,569.8,498.4,567.8,498.5,568.2z"/>
<path class="st16" d="M498.2,590.3c-0.4,1.1-0.7,2.1-1.2,2.8c-2.5,3.8-4.1,6.6-5.2,8.9s-1.3,8.1-3.2,12.2
	C486.5,609.7,485.9,594.7,498.2,590.3z"/>
<path class="st16" d="M482.4,625.5c-4.7-1-10.4-5-6.7-8.6c0,0-4.7,3.5-2.1,6.8C477.2,628.5,482.4,625.5,482.4,625.5z"/>
<path class="st26" d="M498.5,568.2c-32.3,25.8-78.9,20.1-78.9,20.1l-13.1-40.9l38.8-14.2L498.5,568.2z"/>
<path class="st27" d="M431.1,579.3c16.4,0.9,49.8-6.3,64.1-13.2l0,0c2.8-1.3,4.9-2.7,6-3.9c-0.5,2.3-1.5,4.3-2.7,6.1
	c-32.3,25.8-78.9,20.1-78.9,20.1s-3.9-3.8-5.3-4.7c-1.1-0.8-4.4-2.4-4.4-2.4C414,580.8,425.6,579,431.1,579.3z"/>
<linearGradient id="SVGID_1_" gradientUnits="userSpaceOnUse" x1="-590.609" y1="1378.418" x2="-582.158" y2="1358.743" gradientTransform="matrix(-1 0 0 1 -5.4482 -920)">
	<stop  offset="0" style="stop-color:#FABC9A"/>
	<stop  offset="0.3113" style="stop-color:#FAC1A0"/>
	<stop  offset="1" style="stop-color:#FBC8A9"/>
</linearGradient>
<path class="st32" d="M602.1,456.6c2.1-1.6,0-12.2-5.6-15.5c-2.7-1.5-8.3-2-12.2-2c-5.1,0-19.4,2.1-19.4,2.1l-3.9,9.9
	c0,0,1.7,0.2,3.5,0c3.4-0.4,7.7-1.1,8-0.7c1.6,2.7,3.3,9.5,17.4,8.5C593,458.9,597.7,459.8,602.1,456.6z"/>
<path class="st9" d="M596.7,486.3c1.3-5.5,3.6-17.7,2.3-20.7s-8.7-21.3-11.2-23.1c-2.5-1.8-14,0.4-14.9,3c-0.9,2.7,5.3,4.1,9.6,3
	c0,0,2.9,7.5,2.9,10.5c-0.1,2.9-11.6,9.9-11.6,9.9L596.7,486.3z"/>
<polygon class="st16" points="602.1,469.8 596.7,486.3 599.4,467.1 "/>
<path class="st33" d="M520.4,798.5c-2-9.4-3.4-28.6,6.9-46.5c-9.7,20.8-33.1,25-33.1,25s9.6,0.4,16.8-2.1c6.9-2.4,5.7,14.3-7.2,20.6
	c0,0,9.2-2.9,13,0c3.8,2.9-29.1,18.1-29.1,18.1s30-11.8,31.9-7.2c1.8,4.6-12,10-12,10s17.3-6.8,19.8,3.1c2.6,10-17.9,30.9-42.7,38.1
	c0,0,28.4-3.2,43-14.3s5.6,31.6,5.6,31.6l0,0c8.2-8.4,13-15.4,13-16C545.5,856.2,522.4,807.8,520.4,798.5z"/>
<path class="st33" d="M401.9,763.3c26.1,20.5,55.6,15.2,55.6,15.2s-16.8,7.9-29.5,5.4c0,0,9.6,7.2,17.9,6.6c0,0-21.3,3.5-37.4-10.5
	h11.3C419.7,780,408.8,773.1,401.9,763.3z"/>
<path class="st33" d="M401.9,878c27.3,18.9,91-2.9,91-2.9S439.6,910.1,401.9,878z"/>
<path class="st16" d="M300.7,727.9L300.7,727.9c1.3-10.8,2.8-22.2,3.4-27c2.9-21.4,4.9-46.9,1.3-52.8l0,0l0,0
	c-3.3-6.1-6.7-15.2-6.4-22.6c0-1.5,0.1-2.8,0.2-3.8l0,0c-2.3,15.6-1.2,23.5,2.6,32.7c3.8,9.3-10.2,93.5-10.2,93.5L300.7,727.9z"/>
<path class="st16" d="M390.6,727.9L390.6,727.9c-1.3-4.4-5.2-20.5-15-17.2c-9.8,3.4-72.6,57.2-84,65c-11.3,7.9-20.1,7.3-25,0l0,0
	c2.9,7.1,8.8,12.9,18.2,10.3c12.6-3.4,85.5-60.7,87.6-61.2c1.3-0.4,6.9,8.6,12.5,17.6C385.8,741.5,388.5,736.8,390.6,727.9z"/>
<path class="st16" d="M585.4,621.7c-15.5,7.8-71.5,35.6-76.3,45.7l0,0c2.8,4.3,5.5,8.5,7.9,12.2c2.9-7.2,8.8-12.2,14.7-16.1
	c26.5-17.8,72.1-43.1,80-51.5c7.2-7.8,8.7-14.1,8.8-23.1C613.5,603.1,600.7,613.9,585.4,621.7z"/>
<g>
	<g>
		<g>
			<path class="st34" d="M460,785.4c-0.8,0.1-1.6,0.3-2.4,0.5c-1.4,0.4-2.6,1-3.6,1.7c-1,0.7-1.7,1.6-2.2,2.7
				c-0.4,1-0.7,2.1-0.8,3.3c-0.1,1.1,0,2.5,0.2,4l0.1,0.5l-2.1,0.6c-0.4,0.1-0.8,0.3-1.1,0.5c-0.4,0.2-0.7,0.5-0.9,0.8
				c-0.2,0.2-0.3,0.5-0.4,0.7c-0.1,0.3-0.2,0.6-0.2,0.9c0,0.3,0,0.6,0,0.7c0,0.2,0,0.4,0.1,0.7l0.1,0.5l4.9-1.4l1.4,12
				c0,0.4,0.1,0.7,0.2,1c0.1,0.3,0.2,0.5,0.4,0.7c0.2,0.2,0.4,0.4,0.7,0.5c0.2,0.1,0.5,0.1,0.6,0.1c0.2,0,0.5,0,0.9-0.1
				c0.3-0.1,0.6-0.1,0.8-0.2c0.2-0.1,0.5-0.1,0.9-0.3l0.6-0.2l-1.6-15l3.9-1.1c0.4-0.1,0.8-0.3,1.1-0.5c0.4-0.2,0.7-0.5,0.9-0.8
				c0.2-0.2,0.3-0.5,0.4-0.7c0.1-0.3,0.2-0.6,0.2-0.9c0-0.3,0-0.6,0-0.7c0-0.2,0-0.4-0.1-0.8l0-0.5l-6.8,2l-0.1-0.5
				c-0.1-0.9-0.2-1.7-0.2-2.2c0-0.6,0-1.1,0.1-1.6c0.1-0.5,0.2-0.8,0.3-1c0.2-0.2,0.4-0.4,0.6-0.6c0.3-0.2,0.7-0.4,1.1-0.5
				c0.2-0.1,0.5-0.1,0.8-0.2c0.4-0.1,0.7-0.2,0.9-0.2c0.3-0.1,0.6-0.2,1-0.4c0.4-0.2,0.7-0.5,1-0.8c0.2-0.3,0.4-0.7,0.6-1.1
				c0.2-0.5,0.3-1,0.4-1.6l0-0.5l-1.1,0C461.5,785.2,460.8,785.3,460,785.4z"/>
			<path class="st34" d="M468.6,791c0.8-0.2,1.5-0.7,2.1-1.5c0.6-0.7,0.8-1.5,0.8-2.3c-0.1-0.8-0.4-1.4-1.1-1.8
				c-0.7-0.4-1.4-0.5-2.3-0.2c-0.9,0.3-1.6,0.8-2.1,1.5c-0.6,0.8-0.8,1.5-0.7,2.3c0.1,0.8,0.4,1.4,1.1,1.8
				C467,791.2,467.8,791.3,468.6,791z"/>
			<path class="st34" d="M472.6,808.3c0,0-0.1-0.1-0.2-0.5l-0.8-12.3c0-0.4-0.1-0.8-0.2-1.1c-0.1-0.3-0.2-0.5-0.4-0.7
				c-0.2-0.2-0.4-0.4-0.7-0.5c-0.3-0.1-0.5-0.1-0.7-0.2c-0.2,0-0.5,0-1,0.1c-0.4,0.1-0.6,0.1-0.9,0.2c-0.2,0.1-0.5,0.1-1,0.3
				l-0.6,0.2l1.3,15.7c0.1,1.2,0.4,1.9,1,2.4c0.6,0.5,1.5,0.6,2.7,0.2c1-0.3,1.7-0.7,2.2-1.4c0.5-0.6,0.7-1.3,0.6-2.1l0-0.5
				l-0.6,0.2C472.8,808.3,472.6,808.3,472.6,808.3z"/>
			<path class="st34" d="M484.1,788.4l-0.1-2.3c0-0.4-0.1-0.8-0.2-1.1c-0.1-0.3-0.2-0.6-0.3-0.8c-0.2-0.3-0.4-0.4-0.7-0.5
				c-0.3-0.1-0.5-0.1-0.7-0.2c-0.2,0-0.6,0-1,0.1c-0.4,0.1-0.7,0.1-0.9,0.2c-0.2,0.1-0.5,0.2-1,0.3l-0.6,0.2l0.3,5.8l-2.1,0.6
				c-0.4,0.1-0.8,0.3-1.1,0.5c-0.4,0.2-0.7,0.5-0.9,0.8c-0.2,0.3-0.3,0.5-0.4,0.7c-0.1,0.3-0.2,0.6-0.2,0.9c0,0.3,0,0.6,0,0.7
				c0,0.2,0,0.4,0,0.8l0,0.5l5-1.4l0.4,7.2c0.2,3.1,0.7,5.1,1.7,6.1c1,1,2.7,1.2,5.1,0.6c1.5-0.4,2.7-1.1,3.5-1.9
				c0.8-0.9,1.1-2,0.9-3.2l-0.1-0.6l-1,0.6c-0.2,0.1-0.6,0.3-1,0.5c-0.4,0.2-0.8,0.3-1.2,0.4c-1.1,0.3-1.8,0.2-2.1-0.2
				c-0.3-0.4-0.6-1.3-0.7-3.7l-0.3-7.3l3.5-1c0.4-0.1,0.8-0.3,1.1-0.5c0.4-0.2,0.7-0.5,0.9-0.8c0.2-0.3,0.3-0.5,0.5-0.7
				c0.1-0.3,0.2-0.6,0.3-1c0-0.3,0.1-0.6,0.1-0.8c0-0.2,0-0.4,0-0.8l0-0.6L484.1,788.4z"/>
		</g>
		<g>
			<path class="st11" d="M499.9,791.6c0-0.6,0.1-1,0.2-1.4c0.1-0.4,0.3-0.8,0.7-1.1c0.4-0.3,0.6-0.6,0.9-0.7
				c0.2-0.1,0.6-0.4,1.3-0.7c0.2-0.1,0.3-0.2,0.4-0.2c1.7-0.9,3-1.9,3.8-2.9c0.8-1,1.2-2.2,1.3-3.7c0-1.3-0.5-2.2-1.5-2.6
				c-1-0.4-2.6-0.3-4.7,0.3c-0.9,0.3-1.7,0.6-2.5,1c-0.8,0.4-1.5,0.9-2.1,1.3c-0.6,0.4-1,0.9-1.5,1.3c-0.4,0.4-0.8,0.7-1,1l-0.3,0.4
				c-0.5,0-0.9-0.1-1.2-0.4c-0.3-0.3-0.5-0.7-0.5-1.3c0-0.6,0.3-1.1,0.8-1.8c0.9-1,2.1-2,3.6-2.9c1.5-0.9,3-1.6,4.7-2.1
				c1.9-0.6,3.5-0.8,4.9-0.8c1.4,0,2.5,0.3,3.3,0.8c0.8,0.5,1.4,1.1,1.7,1.9c0.4,0.8,0.5,1.7,0.5,2.8c-0.1,2.4-0.8,4.4-2.1,6
				c-1.3,1.6-3.2,3-5.8,4.3c-0.3,0.2-0.5,0.3-0.6,0.5c-0.1,0.2-0.2,0.4-0.2,0.7l-0.1,4.5c-0.4,0.1-0.6,0.2-0.8,0.2
				c-0.2,0.1-0.4,0.1-0.7,0.2c-0.3,0.1-0.5,0.1-0.7,0.1c-0.1,0-0.3,0-0.5,0c-0.2,0-0.4,0-0.5-0.1c-0.1-0.1-0.2-0.1-0.4-0.2
				c-0.1-0.1-0.2-0.2-0.3-0.4c-0.1-0.2-0.1-0.4-0.2-0.6c0-0.2-0.1-0.5-0.1-0.8L499.9,791.6z M500.2,802.8c-0.4-0.3-0.7-0.7-0.7-1.3
				c0-0.6,0.2-1.2,0.7-1.7c0.5-0.5,1-0.9,1.7-1.1c0.7-0.2,1.2-0.1,1.7,0.1c0.5,0.3,0.7,0.7,0.7,1.3c0,0.6-0.2,1.2-0.7,1.7
				c-0.5,0.5-1,0.9-1.7,1.1C501.2,803.1,500.6,803.1,500.2,802.8z"/>
			<path class="st34" d="M501.9,803.4c-0.8,0.2-1.5,0.2-2.1-0.2c-0.6-0.3-0.8-0.9-0.8-1.6c0-0.7,0.3-1.5,0.9-2.1
				c0.6-0.7,1.3-1.1,2.1-1.4c0.8-0.2,1.5-0.2,2.1,0.2c0.6,0.4,0.8,0.9,0.8,1.7c0,0.7-0.3,1.4-0.9,2.1
				C503.4,802.7,502.7,803.2,501.9,803.4z M501.9,799.2c-0.5,0.1-0.9,0.4-1.3,0.8c-0.4,0.4-0.5,0.8-0.5,1.3c0,0.5,0.2,0.8,0.5,1
				c0.3,0.2,0.8,0.2,1.3,0.1c0.5-0.1,0.9-0.4,1.3-0.8c0.4-0.4,0.5-0.8,0.5-1.3c0-0.5-0.2-0.8-0.5-1
				C502.8,799.1,502.4,799,501.9,799.2z M504.5,796l-1.4,0.4c-0.2,0.1-0.4,0.1-0.8,0.2c-0.3,0.1-0.6,0.1-0.8,0.1c-0.1,0-0.3,0-0.6,0
				c-0.3,0-0.6,0-0.7-0.2c-0.1-0.1-0.2-0.2-0.4-0.3c-0.2-0.1-0.3-0.3-0.4-0.6c-0.1-0.2-0.1-0.4-0.2-0.7c0-0.3-0.1-0.6-0.1-0.9l0-2.4
				c0-0.6,0.1-1.1,0.2-1.6c0.1-0.5,0.5-1,0.9-1.5c0.4-0.4,0.7-0.6,1-0.8c0.2-0.2,0.7-0.4,1.3-0.8l0.4-0.2c1.6-0.9,2.8-1.8,3.5-2.7
				c0.7-0.8,1.1-1.9,1.1-3.3c0-1.1-0.4-1.9-1.3-2.2c-0.9-0.4-2.4-0.3-4.3,0.3c-0.8,0.2-1.6,0.6-2.4,1c-0.8,0.4-1.4,0.8-1.9,1.2
				c-0.5,0.4-1,0.8-1.4,1.2c-0.4,0.4-0.7,0.7-0.9,0.9L495,784l-0.3,0c-0.6,0-1.1-0.2-1.5-0.5c-0.4-0.4-0.6-0.9-0.6-1.6
				c0-0.7,0.4-1.5,1-2.2c1-1.1,2.2-2.2,3.8-3.1c1.5-0.9,3.2-1.7,4.9-2.2c1.9-0.6,3.7-0.9,5.1-0.9c1.5,0,2.7,0.3,3.5,0.8
				c0.9,0.5,1.5,1.2,1.9,2.1c0.4,0.8,0.6,1.9,0.5,3c-0.1,2.6-0.9,4.7-2.3,6.4c-1.4,1.7-3.4,3.2-6,4.6c-0.2,0.1-0.3,0.2-0.3,0.2
				c0,0,0,0.1,0,0.3L504.5,796z M501.1,795.6c0,0,0.1,0,0.2,0c0.2,0,0.4,0,0.5,0c0.1,0,0.2,0,0.6-0.1c0.3-0.1,0.5-0.1,0.7-0.2
				l0.2-0.1l0-4c0-0.5,0.1-0.8,0.3-1.1c0.2-0.3,0.5-0.5,1-0.8c2.4-1.2,4.2-2.6,5.5-4.1c1.2-1.4,1.8-3.3,1.9-5.5c0-1-0.1-1.8-0.5-2.6
				c-0.3-0.7-0.9-1.3-1.6-1.8c-0.7-0.5-1.8-0.7-3.1-0.7c-1.3,0-2.9,0.3-4.8,0.8c-1.6,0.5-3.1,1.1-4.5,2c-1.4,0.8-2.5,1.7-3.3,2.7
				c-0.4,0.5-0.6,0.9-0.6,1.3c0,0.4,0.1,0.7,0.3,0.9c0.2,0.2,0.4,0.3,0.6,0.3l0,0c0.2-0.3,0.6-0.6,1-1.1c0.5-0.4,1-0.9,1.5-1.3
				c0.6-0.5,1.3-0.9,2.2-1.4c0.9-0.5,1.8-0.8,2.7-1.1c2.2-0.7,3.9-0.7,5.1-0.3c1.2,0.5,1.8,1.5,1.7,3c0,1.7-0.5,3.1-1.5,4.2
				c-0.9,1.1-2.3,2.1-4.1,3.1l-0.4,0.2c-0.8,0.4-1.1,0.6-1.2,0.7c-0.1,0.1-0.3,0.2-0.7,0.6c-0.2,0.2-0.4,0.5-0.5,0.7
				c-0.1,0.3-0.1,0.8-0.1,1.3l0,2.4c0,0.3,0,0.5,0.1,0.7c0,0.2,0.1,0.4,0.1,0.5c0,0.1,0.1,0.2,0.2,0.2
				C500.9,795.4,501.1,795.5,501.1,795.6L501.1,795.6z"/>
		</g>
	</g>
	<g>
		<g>
			<path class="st35" d="M465.6,815.9c-0.6,0.2-1.1,0.5-1.6,0.8c-0.4,0.4-0.8,0.8-1.1,1.4c-0.3,0.5-0.5,1.2-0.7,2l-2.6,9.7l-4.5-7.7
				c-0.4-0.6-0.7-1.1-1.1-1.5c-0.4-0.4-0.9-0.6-1.3-0.7c-0.5-0.1-1-0.1-1.6,0.1c-0.5,0.1-1.2,0.3-1.9,0.5l-0.7,0.2l8.2,12.9
				c0.3,0.6,0.7,1,1.1,1.2l-1.3,4.5c-0.3,0.9-0.5,1.3-0.6,1.5c-0.1,0.2-0.5,0.3-0.8,0.4c-1.8,0.5-2.8,1.6-2.8,3.1l0,0.3l0.7,0.1
				c0.3,0,0.6,0,1.2,0c0.5-0.1,1.1-0.2,1.6-0.3c0.6-0.2,1.2-0.4,1.7-0.6c0.5-0.2,0.9-0.5,1.2-0.7c0.4-0.3,0.7-0.6,1-1.1
				c0.3-0.4,0.5-0.8,0.7-1.2c0.2-0.4,0.4-0.9,0.6-1.6l7.3-24.1l-0.8,0.2C466.7,815.5,466.1,815.7,465.6,815.9z"/>
			<path class="st35" d="M477.9,812.1c-1.6,0.5-3,1.1-4.2,2c-1.2,0.9-2.2,1.9-2.9,3c-0.7,1.1-1.2,2.2-1.4,3.4
				c-0.3,1.2-0.4,2.4-0.3,3.6c0.1,1.2,0.4,2.3,0.8,3.2c0.4,0.9,1.1,1.7,1.8,2.3c0.8,0.6,1.8,1,3,1.1c1.2,0.1,2.6,0,4.1-0.4
				c0.9-0.2,1.8-0.6,2.6-0.9c0.9-0.4,1.6-0.7,2.1-1c0.6-0.3,1.1-0.6,1.6-0.9c0.7-0.4,0.9-0.6,1-0.7c0.2-0.1,0.3-0.2,0.4-0.3l0.3-0.3
				l-0.1-0.3c-0.1-0.5-0.3-0.8-0.6-1.1c-0.3-0.3-0.6-0.4-1-0.4c-0.3,0-0.7,0-1,0.1c-0.4,0.1-0.7,0.2-1,0.4c-1.7,0.9-3.2,1.6-4.4,1.9
				c-1.4,0.4-2.4,0.3-3.2-0.3c-0.7-0.5-1.1-1.2-1.3-2.1l10.4-2.9c1.1-0.3,1.9-0.8,2.4-1.4c0.5-0.6,0.8-1.4,0.7-2.4
				c-0.3-2.5-1.3-4.2-3-5.2C482.9,811.4,480.6,811.3,477.9,812.1z M475.1,817.8c0.7-1,1.7-1.7,3.1-2c1.4-0.4,2.5-0.3,3.2,0.3
				c0.7,0.5,1.1,1.3,1.3,2.3l-8.7,2.4C474.1,819.7,474.5,818.7,475.1,817.8z"/>
			<path class="st35" d="M505.3,815.3c-0.4-0.6-0.9-1.1-1.7-1.3c-0.7-0.3-1.5-0.4-2.4-0.4c-0.9,0-1.9,0-3.1,0.2
				c-1.6,0.2-2.3,0.1-2.6,0c-0.4-0.2-0.6-0.5-0.6-0.9c0-0.5,0.2-0.9,0.6-1.3c0.8-0.8,2.8-1.4,5.3-1.4c0.4,0,0.7-0.1,1-0.1
				c0.4-0.1,0.8-0.2,1.2-0.4c0.5-0.2,0.9-0.6,1.3-1.2c0.3-0.5,0.5-1.1,0.6-1.7l0.1-0.4l-1.2-0.2c-0.6-0.1-1.5-0.1-2.7,0
				c-1.2,0.1-2.4,0.3-3.6,0.6c-2.4,0.7-4.3,1.7-5.6,3.1c-1.3,1.4-2,2.9-2,4.5c0,1.6,0.7,2.6,2,3.2c1.2,0.6,3.1,0.7,5.5,0.3
				c1.3-0.2,2.3-0.1,2.8,0.1c0.5,0.2,0.7,0.6,0.7,1.2c0,0.5,0,1.7-3.1,2.5c-1.3,0.4-2.7,0.5-4.4,0.6c-0.4,0-0.8,0.1-1.3,0.3
				c-0.5,0.2-1,0.5-1.5,1c-0.4,0.5-0.7,1.1-0.8,1.8l-0.1,0.3l0.7,0.1c0.2,0,0.6,0.1,1,0.1c0.5,0,1,0,1.6,0c0.6,0,1.3-0.1,2.2-0.2
				c0.8-0.1,1.7-0.3,2.6-0.6c2.5-0.7,4.4-1.6,5.7-2.8c1.4-1.2,2.2-2.8,2.2-4.6C505.8,816.6,505.7,815.9,505.3,815.3z"/>
		</g>
		<g>
			<path class="st11" d="M510.4,820.3c-0.4-0.2-0.6-0.6-0.6-1.2c0-0.5,0.2-1.1,0.7-1.6c0.5-0.5,1-0.8,1.6-1c0.6-0.2,1.2-0.1,1.6,0.1
				c0.4,0.3,0.6,0.7,0.6,1.2c0,0.5-0.3,1.1-0.7,1.5c-0.5,0.5-1,0.8-1.6,1C511.3,820.6,510.8,820.6,510.4,820.3z M510.5,812.8
				l0.3-16.7c0.4-0.1,0.6-0.2,0.8-0.2c0.2-0.1,0.4-0.1,0.7-0.2c0.3-0.1,0.5-0.1,0.7-0.1s0.3,0,0.5,0c0.2,0,0.4,0,0.5,0.1
				c0.1,0.1,0.2,0.1,0.3,0.2c0.1,0.1,0.2,0.2,0.3,0.4c0.1,0.2,0.1,0.4,0.1,0.6c0,0.2,0,0.5,0,0.8l-0.8,16.2
				c-1.2,0.4-2.1,0.5-2.7,0.4C510.7,814.1,510.4,813.6,510.5,812.8z"/>
			<path class="st35" d="M512,820.9c-0.8,0.2-1.4,0.2-2-0.1c-0.5-0.3-0.8-0.8-0.8-1.5c0-0.7,0.3-1.3,0.9-2c0.6-0.6,1.2-1,2-1.3
				c0.8-0.2,1.5-0.2,2,0.2c0.5,0.3,0.8,0.8,0.8,1.5c0,0.7-0.3,1.3-0.9,1.9C513.4,820.3,512.7,820.7,512,820.9z M512.1,817
				c-0.5,0.1-0.9,0.4-1.2,0.8c-0.3,0.4-0.5,0.8-0.5,1.2c0,0.4,0.1,0.7,0.5,0.9l0,0c0.3,0.2,0.7,0.2,1.2,0.1c0.5-0.1,0.9-0.4,1.2-0.8
				c0.3-0.4,0.5-0.8,0.5-1.2c0-0.4-0.1-0.7-0.5-0.9C513,816.9,512.6,816.9,512.1,817z M513.5,814.5c-1.1,0.3-1.9,0.4-2.5,0.3
				c-0.7-0.2-1.1-0.8-1.1-1.7l0.3-17.3l1.4-0.4c0.2-0.1,0.4-0.1,0.8-0.2c0.3-0.1,0.6-0.1,0.8-0.1c0.1,0,0.3,0,0.6,0
				c0.3,0,0.6,0,0.7,0.2c0.1,0.1,0.2,0.2,0.4,0.3c0.2,0.1,0.3,0.3,0.4,0.5c0.1,0.2,0.1,0.4,0.1,0.7c0,0.3,0,0.5,0,0.9l-0.9,16.7
				l-0.5,0.2C513.8,814.4,513.6,814.4,513.5,814.5z M511.4,796.4l-0.3,16.2c0,0.9,0.4,1,0.5,1.1c0.3,0.1,0.8,0.1,1.9-0.2l0.8-15.7
				c0-0.3,0-0.5,0-0.7c0-0.2-0.1-0.4-0.1-0.5c0-0.1-0.1-0.2-0.2-0.2c-0.1-0.1-0.2-0.2-0.3-0.2c0,0-0.1,0-0.2,0c-0.2,0-0.4,0-0.5,0
				c-0.1,0-0.2,0-0.6,0.1c-0.3,0.1-0.5,0.1-0.7,0.2L511.4,796.4z"/>
		</g>
	</g>
	<g>
		<path class="st36" d="M489.9,768.2c-6.2,1.1-17.9,1.1-24.6,6.4c-0.5,0.4-1.4,1.4-1.6,2.1l-1.6,4.6c1.9-1.9,7.3-5.5,9.4-6.5
			c5.3,7,16.1,3.3,23.4-4.9c1.8-2,4.1-4.7,4.6-6.7c-4.2,2.6-7.1-2.2-12.3-3.6c-7.7-2.1-15.2,3.9-15.9,10.2
			C476.8,767.3,487.2,767.4,489.9,768.2"/>
	</g>
</g>
<g>
	<path class="st11" d="M336.5,574.1l-43.5,4.5c-6.1,0.6-11.1-3.7-11-9.5l0.8-41.6c0.1-4.8,4.6-8,10-7.4l39.1,4.5
		c3.7,0.4,7,3.8,7.4,7.7l3.5,32.9C343.3,569.7,340.5,573.7,336.5,574.1z"/>
	<g>
		<g>
			<g>
				<path class="st34" d="M304.2,534.2c-0.5-0.1-0.9-0.2-1.4-0.2c-0.8-0.1-1.5,0-2.1,0.2c-0.6,0.2-1.1,0.6-1.4,1
					c-0.3,0.5-0.5,1-0.7,1.7c-0.1,0.6-0.2,1.4-0.2,2.4l0,0.3l-1.3-0.1c-0.3,0-0.5,0-0.7,0.1c-0.2,0.1-0.4,0.2-0.6,0.3
					c-0.1,0.1-0.2,0.2-0.3,0.3c-0.1,0.1-0.1,0.3-0.2,0.5c0,0.2,0,0.3,0,0.4c0,0.1,0,0.3,0,0.5l0,0.3l3.1,0.1l0.1,8
					c0,0.3,0,0.5,0.1,0.7c0.1,0.2,0.1,0.4,0.2,0.5c0.1,0.2,0.2,0.3,0.4,0.5c0.2,0.1,0.3,0.2,0.4,0.2c0.1,0.1,0.3,0.1,0.6,0.1
					c0.2,0,0.4,0,0.5,0c0.1,0,0.3,0,0.6,0l0.4,0l-0.2-9.9l2.4,0.1c0.2,0,0.5,0,0.7-0.1c0.2-0.1,0.4-0.2,0.5-0.3
					c0.1-0.1,0.2-0.2,0.3-0.3c0.1-0.1,0.1-0.3,0.1-0.5c0-0.2,0-0.3,0-0.4c0-0.1,0-0.2,0-0.4l0-0.3l-4.1-0.2l0-0.3c0-0.6,0-1,0-1.3
					c0-0.3,0.1-0.6,0.1-0.9c0.1-0.3,0.2-0.4,0.2-0.5c0.1-0.1,0.2-0.2,0.4-0.2c0.2-0.1,0.4-0.1,0.7-0.1c0.1,0,0.3,0,0.5,0
					c0.2,0,0.4,0,0.5,0.1c0.2,0,0.4,0,0.6,0c0.2,0,0.4-0.1,0.6-0.2c0.1-0.1,0.3-0.3,0.4-0.5c0.1-0.2,0.2-0.5,0.3-0.8l0-0.3l-0.6-0.2
					C305.1,534.4,304.7,534.3,304.2,534.2z"/>
				<path class="st34" d="M308.9,538.9c0.5,0,0.9-0.1,1.2-0.4c0.3-0.3,0.5-0.7,0.5-1.1c0-0.4-0.2-0.8-0.6-1.2
					c-0.3-0.3-0.8-0.5-1.2-0.6c-0.5,0-0.9,0.1-1.2,0.4c-0.3,0.3-0.5,0.7-0.5,1.1c0,0.4,0.2,0.8,0.6,1.2
					C308,538.7,308.4,538.9,308.9,538.9z"/>
				<path class="st34" d="M310.9,549.9c0,0-0.1-0.1-0.1-0.3l-0.3-7.6c0-0.3,0-0.5-0.1-0.7c-0.1-0.2-0.1-0.4-0.2-0.5
					c-0.1-0.2-0.2-0.3-0.4-0.4c-0.1-0.1-0.3-0.2-0.4-0.2c-0.1-0.1-0.3-0.1-0.5-0.1c-0.2,0-0.4,0-0.5-0.1c-0.1,0-0.3,0-0.6,0l-0.3,0
					l0.3,9.7c0,0.8,0.2,1.3,0.6,1.8c0.4,0.4,0.9,0.7,1.7,0.7c0.6,0,1-0.2,1.3-0.5c0.3-0.3,0.4-0.7,0.4-1.2l0-0.3l-0.3,0
					C311,550,310.9,550,310.9,549.9z"/>
				<path class="st34" d="M317.3,540.4l-0.1-1.3c0-0.2,0-0.5-0.1-0.6c-0.1-0.2-0.1-0.3-0.2-0.5c-0.1-0.2-0.2-0.3-0.4-0.4
					c-0.1-0.1-0.2-0.2-0.4-0.2c-0.1-0.1-0.3-0.1-0.5-0.1c-0.2,0-0.3,0-0.5-0.1c-0.1,0-0.3,0-0.5,0l-0.3,0l0.2,3.2l-1.1-0.1
					c-0.2,0-0.4,0-0.6,0c-0.2,0.1-0.4,0.1-0.5,0.3c-0.1,0.1-0.2,0.2-0.2,0.3c-0.1,0.1-0.1,0.3-0.1,0.5c0,0.2,0,0.3,0,0.4
					c0,0.1,0,0.2,0,0.4l0,0.3l2.7,0.1l0.2,4.3c0.1,1.9,0.4,3.3,1,4.1c0.6,0.8,1.6,1.3,2.9,1.3c0.9,0,1.5-0.2,1.9-0.6
					c0.4-0.4,0.6-1,0.4-1.8l-0.1-0.4l-0.5,0.2c-0.1,0-0.3,0.1-0.6,0.1c-0.2,0-0.4,0.1-0.6,0.1c-0.6,0-1-0.2-1.2-0.5
					c-0.2-0.3-0.4-0.9-0.5-2.4l-0.2-4.2l1.9,0.1c0.2,0,0.4,0,0.6-0.1c0.2-0.1,0.4-0.1,0.5-0.3c0.1-0.1,0.2-0.2,0.2-0.3
					c0.1-0.1,0.1-0.3,0.1-0.5c0-0.2,0-0.3,0-0.4c0-0.1,0-0.2,0-0.4l0-0.3L317.3,540.4z"/>
			</g>
			<g>
				<path class="st11" d="M325.5,544.9c0-0.3,0-0.6,0-0.8c0-0.2,0.1-0.4,0.3-0.5c0.2-0.1,0.3-0.2,0.4-0.2c0.1,0,0.3-0.1,0.6-0.2
					c0.1,0,0.2,0,0.2-0.1c0.8-0.2,1.4-0.5,1.7-0.9c0.3-0.4,0.5-0.9,0.4-1.7c-0.1-0.7-0.3-1.2-0.9-1.6c-0.5-0.4-1.3-0.6-2.3-0.7
					c-0.4,0-0.8,0-1.2,0.1c-0.4,0.1-0.7,0.2-1,0.3c-0.3,0.1-0.5,0.3-0.7,0.4c-0.2,0.1-0.4,0.2-0.5,0.3l-0.1,0.1
					c-0.2-0.1-0.5-0.2-0.6-0.4c-0.2-0.2-0.3-0.5-0.3-0.7c0-0.3,0.1-0.5,0.4-0.8c0.4-0.4,1-0.6,1.7-0.8c0.7-0.2,1.4-0.3,2.2-0.2
					c0.9,0.1,1.6,0.2,2.3,0.5c0.7,0.2,1.2,0.6,1.6,0.9c0.4,0.4,0.7,0.8,0.9,1.3c0.2,0.5,0.3,0.9,0.4,1.5c0.1,1.2-0.1,2.1-0.6,2.7
					c-0.5,0.6-1.4,1.1-2.6,1.4c-0.1,0-0.2,0.1-0.3,0.1c0,0.1-0.1,0.2-0.1,0.4l0.2,2.5c-0.2,0-0.3,0-0.4,0c-0.1,0-0.2,0-0.4,0
					c-0.2,0-0.3,0-0.3,0c-0.1,0-0.2,0-0.3-0.1c-0.1,0-0.2-0.1-0.3-0.1c-0.1-0.1-0.1-0.1-0.2-0.2c-0.1-0.1-0.1-0.2-0.2-0.3
					c0-0.1-0.1-0.2-0.1-0.4c0-0.1-0.1-0.3-0.1-0.5L325.5,544.9z M326.2,551.5c-0.3-0.2-0.4-0.5-0.4-0.9c0-0.4,0.1-0.7,0.3-0.9
					c0.2-0.2,0.5-0.4,0.8-0.4c0.3,0,0.6,0.1,0.9,0.4c0.3,0.2,0.4,0.5,0.4,0.9c0,0.3-0.1,0.6-0.3,0.9c-0.2,0.2-0.5,0.4-0.8,0.4
					C326.8,551.8,326.5,551.7,326.2,551.5z"/>
				<path class="st34" d="M327.1,552.1c-0.4,0-0.8-0.2-1.1-0.5c-0.3-0.3-0.5-0.7-0.5-1.1c0-0.4,0.1-0.8,0.4-1.1
					c0.3-0.3,0.6-0.5,1-0.4c0.4,0,0.8,0.2,1.1,0.5c0.3,0.3,0.5,0.7,0.5,1.1c0,0.4-0.1,0.8-0.3,1.1
					C327.9,552,327.5,552.1,327.1,552.1z M326.9,549.6c-0.3,0-0.5,0.1-0.6,0.3c-0.2,0.2-0.2,0.4-0.2,0.7c0,0.3,0.1,0.5,0.3,0.7
					c0.2,0.2,0.4,0.3,0.7,0.3c0.3,0,0.5-0.1,0.6-0.3c0.2-0.2,0.2-0.4,0.2-0.7c0-0.3-0.1-0.5-0.3-0.7
					C327.4,549.7,327.2,549.6,326.9,549.6z M328.1,548.2l-0.7,0c-0.1,0-0.2,0-0.4,0c-0.2,0-0.3,0-0.4-0.1c-0.1,0-0.2,0-0.3-0.1
					c-0.2-0.1-0.3-0.1-0.4-0.2c-0.1-0.1-0.1-0.1-0.2-0.2c-0.1-0.1-0.2-0.2-0.2-0.4c0-0.1-0.1-0.3-0.1-0.4c0-0.2-0.1-0.3-0.1-0.5
					l-0.1-1.4c0-0.3,0-0.6,0-0.8c0.1-0.3,0.2-0.5,0.4-0.6c0.2-0.1,0.3-0.2,0.5-0.3c0.1,0,0.3-0.1,0.6-0.2l0.2-0.1
					c0.8-0.2,1.3-0.5,1.6-0.8c0.3-0.3,0.4-0.8,0.4-1.5c0-0.6-0.3-1-0.7-1.4c-0.5-0.4-1.2-0.6-2.1-0.6c-0.4,0-0.8,0-1.1,0.1
					c-0.4,0.1-0.7,0.2-0.9,0.3c-0.2,0.1-0.5,0.2-0.7,0.4c-0.2,0.1-0.3,0.2-0.4,0.3l-0.3,0.3l-0.2-0.1c-0.3-0.1-0.6-0.3-0.8-0.6
					c-0.2-0.3-0.3-0.6-0.4-1c0-0.4,0.1-0.7,0.4-1c0.4-0.4,1-0.7,1.8-0.9c0.7-0.2,1.5-0.3,2.3-0.2c0.9,0.1,1.7,0.2,2.4,0.5
					c0.7,0.3,1.3,0.6,1.7,1c0.4,0.4,0.8,0.9,1,1.4c0.2,0.5,0.4,1,0.4,1.6c0.1,1.3-0.1,2.3-0.7,2.9c-0.6,0.7-1.5,1.1-2.7,1.4
					c-0.1,0-0.1,0-0.2,0.1c0,0,0,0.1,0,0.2L328.1,548.2z M326.4,547.4c0,0,0,0,0.1,0.1c0.1,0,0.2,0.1,0.3,0.1c0,0,0.1,0,0.3,0
					c0.1,0,0.3,0,0.3,0l0.1,0l-0.2-2.2c0-0.3,0-0.4,0.1-0.6c0.1-0.1,0.2-0.2,0.5-0.2c1.1-0.3,2-0.7,2.5-1.3c0.5-0.6,0.7-1.4,0.6-2.5
					c0-0.5-0.2-1-0.4-1.4c-0.2-0.4-0.5-0.8-0.9-1.2c-0.4-0.3-0.9-0.6-1.5-0.9c-0.6-0.2-1.4-0.4-2.2-0.4c-0.7,0-1.4,0-2.1,0.2
					c-0.7,0.2-1.2,0.4-1.6,0.8c-0.2,0.2-0.3,0.4-0.3,0.6c0,0.2,0.1,0.4,0.2,0.5c0.1,0.1,0.2,0.2,0.3,0.3l0,0
					c0.1-0.1,0.3-0.2,0.5-0.4c0.2-0.1,0.5-0.3,0.7-0.4c0.3-0.1,0.6-0.2,1-0.3c0.4-0.1,0.8-0.1,1.2-0.1c1,0.1,1.9,0.3,2.4,0.7
					c0.6,0.5,0.9,1.1,1,1.8c0.1,0.8-0.1,1.5-0.5,1.9c-0.4,0.4-1,0.7-1.8,0.9l-0.2,0.1c-0.4,0.1-0.5,0.1-0.6,0.2
					c-0.1,0-0.2,0.1-0.3,0.2c-0.1,0.1-0.2,0.2-0.2,0.3c0,0.2,0,0.4,0,0.7l0.1,1.4c0,0.2,0,0.3,0.1,0.4c0,0.1,0.1,0.2,0.1,0.3
					c0,0.1,0.1,0.1,0.1,0.2C326.3,547.3,326.3,547.3,326.4,547.4L326.4,547.4z"/>
			</g>
		</g>
		<g>
			<g>
				<path class="st35" d="M305.8,553.7c-0.4,0-0.7,0.1-1,0.3c-0.3,0.2-0.6,0.4-0.8,0.7c-0.2,0.3-0.4,0.7-0.6,1.3l-2.2,6.7l-2.5-6.6
					c-0.2-0.5-0.4-1-0.6-1.3c-0.2-0.3-0.5-0.6-0.9-0.7c-0.3-0.1-0.7-0.2-1.1-0.3c-0.4,0-0.8,0-1.3,0l-0.5,0l4.6,11.4
					c0.2,0.5,0.4,0.9,0.7,1.2l-1.2,3.5c-0.3,0.7-0.4,1-0.5,1.1c-0.1,0.1-0.4,0.2-0.6,0.2c-1.4,0.1-2.2,0.9-2.3,2.3l0,0.3l0.5,0.2
					c0.2,0.1,0.5,0.1,0.9,0.2c0.4,0,0.8,0,1.2,0c0.5,0,0.9-0.1,1.3-0.2c0.4-0.1,0.7-0.3,1-0.4c0.3-0.2,0.6-0.4,0.8-0.8
					c0.2-0.3,0.4-0.6,0.6-0.9c0.2-0.3,0.3-0.7,0.5-1.2l5.8-16.9l-0.5,0C306.5,553.6,306.1,553.6,305.8,553.7z"/>
				<path class="st35" d="M313.4,553.4c-0.9,0-1.8,0.2-2.5,0.5c-0.7,0.4-1.3,0.9-1.8,1.5c-0.4,0.6-0.8,1.3-1,2.1
					c-0.2,0.8-0.3,1.6-0.3,2.5c0,0.9,0.2,1.7,0.4,2.5c0.3,0.8,0.7,1.5,1.1,2.1c0.5,0.6,1.2,1.1,1.9,1.4c0.8,0.3,1.7,0.5,2.6,0.4
					c0.6,0,1.1-0.1,1.7-0.2c0.5-0.1,1-0.2,1.3-0.4c0.3-0.1,0.7-0.3,1-0.4c0.4-0.2,0.5-0.3,0.6-0.3c0.1-0.1,0.2-0.1,0.2-0.2l0.2-0.1
					l-0.1-0.2c-0.1-0.4-0.2-0.7-0.4-0.9c-0.2-0.3-0.4-0.4-0.6-0.5c-0.2-0.1-0.4-0.1-0.6-0.1c-0.2,0-0.5,0-0.6,0.1
					c-1,0.4-2,0.6-2.7,0.7c-0.9,0-1.5-0.2-2-0.8c-0.4-0.5-0.7-1.1-0.8-1.8l6.4-0.3c0.6,0,1.1-0.2,1.4-0.6c0.3-0.4,0.4-0.9,0.3-1.5
					c-0.2-1.7-0.8-3.1-1.9-4C316.3,553.8,314.9,553.4,313.4,553.4z M311.6,556.8c0.4-0.6,1-0.8,1.9-0.8c0.8,0,1.5,0.2,1.9,0.8
					c0.4,0.5,0.7,1.1,0.8,1.8l-5.3,0.2C311,557.9,311.2,557.2,311.6,556.8z"/>
				<path class="st35" d="M329.1,560.2c-0.2-0.5-0.6-0.9-1-1.2c-0.4-0.3-0.9-0.5-1.4-0.7c-0.5-0.2-1.1-0.3-1.7-0.4
					c-0.9-0.1-1.3-0.3-1.5-0.5c-0.2-0.2-0.4-0.4-0.4-0.7c0-0.3,0.1-0.6,0.3-0.8c0.4-0.4,1.5-0.4,2.9,0c0.2,0.1,0.4,0.1,0.6,0.1
					c0.2,0,0.4,0,0.6-0.1c0.3-0.1,0.5-0.2,0.6-0.5c0.1-0.2,0.2-0.6,0.2-1l0-0.2l-0.7-0.3c-0.3-0.2-0.8-0.3-1.4-0.5
					c-0.6-0.2-1.3-0.2-1.9-0.2c-1.3,0-2.3,0.3-3,1c-0.7,0.7-1,1.5-1,2.6c0.1,1,0.5,1.9,1.2,2.5c0.7,0.6,1.8,1,3.2,1.2
					c0.7,0.1,1.3,0.3,1.6,0.5c0.3,0.2,0.4,0.6,0.5,1c0,0.3,0.1,1.2-1.6,1.2c-0.7,0-1.6-0.1-2.5-0.3c-0.2,0-0.5,0-0.7,0
					c-0.3,0-0.6,0.2-0.8,0.5c-0.2,0.3-0.4,0.7-0.4,1.2l0,0.2l0.4,0.2c0.1,0.1,0.3,0.1,0.6,0.2c0.3,0.1,0.6,0.2,0.9,0.3
					c0.3,0.1,0.8,0.2,1.3,0.2c0.5,0,1,0.1,1.5,0c1.4-0.1,2.4-0.4,3.2-1c0.7-0.6,1.1-1.6,1-2.8C329.5,561.2,329.3,560.7,329.1,560.2z
					"/>
			</g>
			<g>
				<path class="st11" d="M332.2,564.5c-0.2-0.2-0.4-0.5-0.4-0.9c0-0.4,0.1-0.7,0.3-1c0.2-0.3,0.5-0.4,0.8-0.4
					c0.3,0,0.6,0.1,0.9,0.3c0.2,0.2,0.4,0.5,0.4,0.9c0,0.4-0.1,0.7-0.3,0.9c-0.2,0.3-0.5,0.4-0.8,0.4
					C332.8,564.9,332.5,564.7,332.2,564.5z M331.7,559.5l-1-10.2c0.2,0,0.3,0,0.4,0c0.1,0,0.2,0,0.3,0c0.1,0,0.3,0,0.3,0
					c0.1,0,0.2,0,0.3,0.1c0.1,0,0.2,0.1,0.2,0.1c0.1,0.1,0.1,0.1,0.2,0.2c0.1,0.1,0.1,0.2,0.2,0.3c0,0.1,0.1,0.2,0.1,0.4
					c0,0.1,0.1,0.3,0.1,0.5l0.8,9.8c-0.6,0.1-1.1,0-1.4-0.2C331.9,560.4,331.8,560,331.7,559.5z"/>
				<path class="st35" d="M333.1,565.2c-0.4,0-0.8-0.1-1.1-0.4c-0.3-0.3-0.5-0.7-0.5-1.1c0-0.5,0.1-0.9,0.3-1.2
					c0.3-0.3,0.6-0.5,1-0.5c0.4,0,0.8,0.1,1.1,0.4c0.3,0.3,0.5,0.7,0.5,1.1c0,0.4-0.1,0.8-0.3,1.2
					C333.9,564.9,333.5,565.1,333.1,565.2z M332.9,562.5c-0.2,0-0.4,0.1-0.6,0.3c-0.2,0.2-0.2,0.4-0.2,0.7c0,0.3,0.1,0.5,0.3,0.7h0
					c0.2,0.2,0.4,0.3,0.7,0.2c0.3,0,0.5-0.1,0.6-0.3c0.2-0.2,0.2-0.4,0.2-0.7c0-0.3-0.1-0.5-0.3-0.7
					C333.4,562.6,333.2,562.5,332.9,562.5z M333.4,561c-0.6,0-1-0.1-1.3-0.2c-0.4-0.2-0.6-0.7-0.7-1.3l-1-10.5l0.7,0
					c0.1,0,0.2,0,0.4,0c0.2,0,0.3,0,0.4,0.1c0.1,0,0.2,0,0.3,0.1c0.2,0.1,0.3,0.1,0.4,0.2c0.1,0.1,0.1,0.1,0.2,0.2
					c0.1,0.1,0.2,0.2,0.2,0.4c0,0.1,0.1,0.2,0.1,0.4c0,0.2,0.1,0.3,0.1,0.5L334,561l-0.3,0C333.6,561,333.5,561,333.4,561z
					 M331.1,549.6l0.9,9.9c0.1,0.6,0.3,0.7,0.4,0.8c0.2,0.1,0.4,0.2,1,0.2l-0.8-9.6c0-0.1,0-0.3-0.1-0.4c0-0.1-0.1-0.2-0.1-0.3
					c0-0.1-0.1-0.1-0.1-0.2c-0.1-0.1-0.1-0.1-0.2-0.2c0,0,0,0-0.1-0.1c-0.1,0-0.2-0.1-0.3-0.1c0,0-0.1,0-0.3,0c-0.1,0-0.2,0-0.3,0
					L331.1,549.6z"/>
			</g>
		</g>
		<g>
			<path class="st36" d="M318.9,531.1c-3-0.6-8.9-2.8-12.5-1.5c-0.3,0.1-0.8,0.4-0.9,0.7l-1,2c1.1-0.6,4.1-1.4,5.2-1.5
				c2.7,4.6,8.3,4.7,11.8,1.9c0.8-0.6,1.8-1.5,2-2.3c-1.9,0.5-3.4-2.3-5.9-3.8c-3.7-2.3-7.4-1.1-7.9,1.7
				C312.4,528.3,317.6,530.3,318.9,531.1"/>
		</g>
	</g>
</g>
<path class="st24" d="M329.3,618.5c0-0.4,0-0.6-0.1-1c0-0.2,0-0.3,0-0.4c0-0.4-0.1-0.6-0.1-1c0-0.2,0-0.3-0.1-0.4
	c0-0.2-0.1-0.4-0.1-0.6c-0.1-0.4-0.1-0.6-0.2-1c0-0.2-0.1-0.4-0.1-0.6c-0.1-0.3-0.1-0.6-0.2-0.9s-0.1-0.5-0.2-0.8
	c0-0.2-0.1-0.4-0.1-0.5c-0.1-0.3-0.2-0.6-0.3-0.9c-0.1-0.2-0.1-0.4-0.2-0.5c-0.1-0.4-0.2-0.7-0.3-1.1c0-0.1-0.1-0.2-0.1-0.3
	c-0.2-0.4-0.3-0.9-0.4-1.4c0-0.1,0-0.1-0.1-0.2c-0.1-0.4-0.3-0.8-0.4-1.2c-0.1-0.2-0.1-0.3-0.2-0.4c-0.1-0.4-0.3-0.6-0.4-1
	c-0.1-0.1-0.1-0.3-0.2-0.4c-0.2-0.4-0.4-0.9-0.5-1.3c0-0.1-0.1-0.1-0.1-0.2c-0.2-0.4-0.4-0.8-0.5-1.2c-0.1-0.1-0.1-0.2-0.2-0.4
	s-0.2-0.4-0.3-0.6c-0.3-0.4-0.4-1-0.7-1.4c-0.1-0.2-0.2-0.4-0.3-0.4c-0.4-0.6-0.6-1.2-1-1.8c-0.1-0.1-0.2-0.3-0.2-0.4
	c-0.3-0.5-0.6-1-0.9-1.5c-0.1-0.2-0.3-0.4-0.4-0.6c-0.1-0.1-0.2-0.3-0.3-0.4c-0.2-0.4-0.4-0.6-0.6-1c-0.1-0.1-0.1-0.2-0.2-0.3
	c-0.3-0.4-0.5-0.8-0.8-1.2l-0.1-0.1c-0.3-0.4-0.6-0.8-0.9-1.2c-0.2-0.2-0.3-0.4-0.4-0.5c-0.2-0.3-0.4-0.4-0.5-0.7
	c-0.2-0.2-0.3-0.4-0.4-0.5c-0.2-0.2-0.4-0.4-0.5-0.6c-0.4-0.4-0.8-0.9-1.2-1.3c0,0,0,0,0-0.1c-0.4-0.4-0.8-0.9-1.3-1.3
	c-0.3-0.3-0.5-0.5-0.8-0.8c-0.1-0.1-0.1-0.1-0.2-0.2c-0.4-0.4-0.7-0.6-1.1-1c-0.1-0.1-0.2-0.2-0.3-0.3c-0.3-0.3-0.5-0.4-0.8-0.7
	c-0.1-0.1-0.3-0.2-0.4-0.3c-0.3-0.2-0.4-0.4-0.7-0.5c-0.2-0.1-0.3-0.2-0.4-0.4c-0.3-0.2-0.4-0.4-0.7-0.5c-0.2-0.1-0.3-0.2-0.4-0.3
	c-0.3-0.2-0.5-0.4-0.7-0.5c-0.1-0.1-0.3-0.2-0.4-0.3c-0.4-0.3-0.8-0.4-1.2-0.7c-0.4-0.2-0.7-0.4-1.1-0.6c-0.1-0.1-0.2-0.1-0.3-0.2
	c-0.4-0.2-0.7-0.4-1-0.5h0.3c-0.4-0.2-0.7-0.4-1.1-0.4c-0.1,0-0.2-0.1-0.2-0.1c-0.4-0.2-0.7-0.3-1.1-0.4h-0.1
	c-0.4-0.1-0.7-0.2-1-0.3h-0.1c-0.3-0.1-0.5-0.2-0.8-0.2c-0.1,0-0.2-0.1-0.4-0.1c-0.4-0.1-0.7-0.2-1.1-0.2c0,0,0,0-0.1,0
	c-0.4-0.1-0.6-0.1-1-0.1c-0.1,0-0.2,0-0.3,0c-0.3,0-0.4,0-0.7,0c-0.1,0-0.2,0-0.3,0c-0.3,0-0.5,0-0.7,0c-0.1,0-0.2,0-0.2,0
	c-0.3,0-0.6,0-0.9,0.1c-0.1,0-0.1,0-0.2,0c-0.3,0-0.4,0.1-0.7,0.1c-0.1,0-0.2,0-0.3,0.1c-0.3,0.1-0.5,0.1-0.8,0.2l0,0
	c-0.3,0.1-0.5,0.2-0.8,0.3c-0.1,0-0.1,0.1-0.2,0.1c-0.2,0.1-0.4,0.2-0.6,0.3c-0.1,0-0.1,0.1-0.2,0.1c-0.3,0.1-0.5,0.3-0.8,0.4
	l23-13.4l0.1-0.1c0.2-0.1,0.4-0.3,0.6-0.4c0.1,0,0.1-0.1,0.2-0.1c0.1-0.1,0.3-0.1,0.4-0.2c0.1,0,0.2-0.1,0.3-0.1
	c0.1,0,0.1-0.1,0.2-0.1c0.3-0.1,0.5-0.2,0.8-0.3l0,0h0.1c0.3-0.1,0.5-0.2,0.8-0.2c0.1,0,0.2,0,0.3-0.1c0.1,0,0.2,0,0.3-0.1
	c0.2,0,0.3,0,0.4-0.1c0.1,0,0.1,0,0.2,0c0.3,0,0.5-0.1,0.8-0.1h0.1c0.1,0,0.2,0,0.2,0c0.3,0,0.4,0,0.7,0c0.1,0,0.2,0,0.3,0
	s0.2,0,0.3,0c0.2,0,0.3,0,0.4,0s0.2,0,0.4,0c0.3,0,0.6,0.1,1,0.1c0,0,0,0,0.1,0l0,0c0.4,0.1,0.7,0.1,1.1,0.2c0.1,0,0.2,0.1,0.4,0.1
	c0.3,0.1,0.4,0.1,0.7,0.2h0.1h0.1c0.4,0.1,0.6,0.2,1,0.3h0.1c0.4,0.1,0.7,0.3,1.1,0.4c0.1,0,0.2,0.1,0.2,0.1c0.1,0,0.2,0.1,0.2,0.1
	c0.3,0.1,0.5,0.3,0.9,0.4c0.1,0,0.1,0.1,0.2,0.1c0.4,0.2,0.6,0.3,1,0.4c0.1,0.1,0.2,0.1,0.3,0.2c0.4,0.2,0.7,0.4,1.1,0.6
	c0.4,0.2,0.8,0.4,1.2,0.7c0.1,0.1,0.3,0.2,0.4,0.3c0.3,0.2,0.5,0.4,0.7,0.5s0.3,0.2,0.4,0.3c0.3,0.2,0.4,0.4,0.7,0.5
	c0.2,0.1,0.3,0.2,0.4,0.4c0.3,0.2,0.4,0.4,0.7,0.5c0.1,0.1,0.3,0.2,0.4,0.3c0.3,0.2,0.5,0.4,0.8,0.7c0.1,0.1,0.2,0.2,0.3,0.3
	c0.4,0.4,0.7,0.6,1.1,1c0.1,0.1,0.1,0.1,0.2,0.2c0.3,0.3,0.4,0.4,0.7,0.7l0.1,0.1c0.4,0.4,0.8,0.8,1.3,1.3c0,0,0,0,0,0.1
	c0.4,0.4,0.8,0.8,1.2,1.3l0.1,0.1c0.2,0.2,0.3,0.4,0.4,0.5s0.3,0.4,0.4,0.5c0.2,0.2,0.4,0.4,0.5,0.6c0.2,0.2,0.3,0.4,0.4,0.5
	l0.1,0.1c0.5,0.7,1.1,1.4,1.6,2.1c0,0,0,0.1,0.1,0.1c0.4,0.6,0.8,1.3,1.3,1.8c0,0.1,0.1,0.1,0.1,0.2c0.1,0.1,0.1,0.2,0.2,0.3
	c0.4,0.5,0.6,1.1,1,1.5c0,0.1,0.1,0.2,0.2,0.3c0,0,0,0.1,0.1,0.1c0.4,0.6,0.7,1.2,1,1.8c0,0.1,0.1,0.1,0.1,0.2
	c0.1,0.1,0.1,0.2,0.2,0.3c0.3,0.4,0.5,1,0.7,1.4c0.1,0.1,0.1,0.2,0.2,0.3s0.1,0.2,0.2,0.3s0.1,0.3,0.2,0.4c0.2,0.4,0.4,0.7,0.5,1.2
	c0,0.1,0.1,0.1,0.1,0.2c0,0,0,0.1,0.1,0.1c0.2,0.4,0.4,0.8,0.5,1.3c0,0.1,0.1,0.2,0.1,0.4c0.1,0.2,0.2,0.4,0.3,0.6
	c0.1,0.2,0.1,0.3,0.2,0.4c0.1,0.1,0.1,0.3,0.2,0.4c0.2,0.4,0.3,0.8,0.4,1.3v0.1v0.1c0.2,0.4,0.3,0.9,0.4,1.3c0,0.1,0.1,0.2,0.1,0.3
	c0.1,0.3,0.2,0.5,0.3,0.8c0,0.1,0,0.2,0.1,0.3c0.1,0.2,0.1,0.4,0.2,0.5c0.1,0.3,0.2,0.6,0.2,0.9c0.1,0.2,0.1,0.4,0.1,0.5
	s0.1,0.4,0.1,0.4s0,0.2,0.1,0.4c0.1,0.3,0.1,0.6,0.2,0.9c0,0.3,0.1,0.4,0.1,0.7c0.1,0.4,0.1,0.6,0.2,1c0,0.2,0.1,0.3,0.1,0.4
	c0,0.1,0,0.1,0,0.2c0,0.2,0,0.3,0.1,0.4c0,0.4,0.1,0.6,0.1,1c0,0.2,0,0.3,0,0.4c0,0.4,0,0.6,0.1,1c0,0.2,0,0.3,0,0.4
	c0,0.4,0,0.9,0,1.3c0,2.3-0.3,4.6-0.8,6.4c-0.2,0.8-0.4,1.5-0.7,2.1c-0.4,1.1-0.9,2-1.4,2.9c-1.1,1.7-2.5,3-4.1,4l-23,13.4
	c4.3-2.5,7-7.9,7-15.4c0-0.4,0-0.9,0-1.3C329.3,618.8,329.3,618.7,329.3,618.5z"/>
<g>
	<path class="st28" d="M305.4,578.8c-13.2-7.7-24-1.5-24.1,13.8c0,15.3,10.7,33.9,23.9,41.5c13.2,7.7,24,1.5,24.1-13.8
		S318.7,586.4,305.4,578.8z"/>
</g>
<path class="st30" d="M216.3,648.7l78.4-45.1l6.1-3.5c0.2-0.1,0.4-0.2,0.6-0.3l0,0h0.1l0,0c0.1,0,0.1,0,0.2,0l0,0c0,0,0,0,0.1,0
	s0.1,0,0.2,0h0.1c0,0,0,0,0.1,0h0.1h0.1c0.1,0,0.2,0,0.2,0l0,0l0,0c0.1,0,0.2,0,0.3,0.1h0.1c0.1,0,0.1,0,0.2,0l0,0l0,0
	c0.1,0,0.2,0.1,0.3,0.1l0,0c0.1,0,0.2,0.1,0.3,0.1c0,0,0,0,0.1,0c0,0,0,0,0.1,0s0.1,0.1,0.2,0.1l0,0c0.1,0,0.2,0.1,0.2,0.1
	s0,0,0.1,0s0.2,0.1,0.3,0.2c0.1,0.1,0.2,0.1,0.3,0.2c0,0,0.1,0,0.1,0.1c0.1,0,0.1,0.1,0.2,0.1l0.1,0.1c0.1,0,0.1,0.1,0.2,0.1
	l0.1,0.1c0.1,0,0.1,0.1,0.2,0.1l0.1,0.1c0.1,0.1,0.1,0.1,0.2,0.2c0,0,0.1,0,0.1,0.1c0.1,0.1,0.2,0.2,0.3,0.2l0,0
	c0.1,0.1,0.1,0.1,0.2,0.2l0,0c0.1,0.1,0.2,0.2,0.3,0.3l0,0c0.1,0.1,0.2,0.2,0.3,0.3l0,0l0.1,0.1l0.1,0.1c0,0.1,0.1,0.1,0.1,0.2
	l0.1,0.1l0,0c0.1,0.2,0.3,0.4,0.4,0.5l0,0c0.1,0.2,0.2,0.3,0.3,0.4l0,0c0,0,0,0,0,0.1c0.1,0.1,0.2,0.3,0.2,0.4c0,0,0,0,0,0.1l0,0
	c0.1,0.2,0.2,0.3,0.3,0.4l0,0v0.1c0.1,0.1,0.1,0.2,0.2,0.4v0.1v0.1v0.1c0,0.1,0.1,0.2,0.1,0.3l0,0l0,0c0,0.1,0.1,0.2,0.1,0.3v0.1
	c0,0.1,0,0.1,0.1,0.2v0.1v0.1c0,0.1,0.1,0.2,0.1,0.3l0,0l0,0c0,0.1,0.1,0.2,0.1,0.3v0.1c0,0.1,0,0.1,0.1,0.2c0,0,0,0,0,0.1v0.1
	c0,0.1,0,0.2,0.1,0.2c0,0.1,0,0.1,0,0.1v0.1v0.1c0,0.1,0,0.2,0,0.2c0,0.1,0,0.1,0,0.2s0,0.2,0,0.2v0.1c0,0,0,0,0,0.1v0.1
	c0,0.1,0,0.2,0,0.2v0.1c0,0.1,0,0.2,0,0.2v0.1c0,0.1,0,0.2,0,0.3c0,0.5-0.1,1.1-0.2,1.5c-0.1,0.2-0.1,0.4-0.2,0.5
	c-0.1,0.3-0.2,0.4-0.4,0.6c-0.1,0.2-0.2,0.3-0.4,0.4c-0.2,0.1-0.4,0.3-0.5,0.4l-6.2,3.5l-78.4,45.1c-1.2,0.7-2.5,1-3.8,1
	c-2.7,0-5.3-1.3-6.6-3.8C211.4,655.5,212.6,650.9,216.3,648.7z"/>
<g>
	<path class="st9" d="M299.7,736.6c-10.7,4.3-21.7,7.8-32.3,12.2c-0.6,0.3-1.2,0.5-1.7,0.8c0.8-13.3,4.4-31.4,10.2-50.7
		c6.3-20.6,8.6-34.3,6.3-36.2c-2.2-2,0.4-3.3-9.5-6.4c-9.9-3.1-28.5-9-29.2-13.4c-0.8-4.4-2.1-18.9,1.3-22.8
		c3.4-3.9,9.5-4.6,15.2-6.9c5.7-2.2,12-1.8,13.8-0.4c1.9,1.3,12.2,10.1,10,11.7c-1,0.7-4.4,3.1-8.8,3.6c-5.6,0.6-12.7-0.8-16.3-1.5
		c-6.3-1.3-6.3-1.3-6.3-1.3s0.4,5.6,0.7,7.6c0.4,2,23.6-3.9,30.6-3.6c7.1,0.4,18.4,12.8,21.9,18.7s1.5,31.4-1.3,52.8
		C303.3,707,301.1,724,299.7,736.6z"/>
</g>
<path class="st9" d="M305.5,648.1c-3.3-6.1-6.7-15.2-6.4-22.6c0.2-7.4,1.4-9-2.8-13.6c-4.2-4.6-8-6.5-11-6.8
	c-2.9-0.3-11.1,3.8-8.9,6.3c2.1,2.5,7.5-0.1,7.5-0.1l6.3,5.5c0,0-3.2,5.6-5.9,8.2c-2.9,2.9-6,7.5-8.8,10.5c-7.5,8.4,2.8,11.3,5,12.4
	C282.7,649,305.5,648.1,305.5,648.1z"/>
</svg>
